<svg width="631" height="167" xmlns="http://www.w3.org/2000/svg">
 <g>
  <title>background</title>
  <rect x="-1" y="-1" width="465.970587" height="124.794117" id="canvas_background" fill="none"/>
 </g>

 <g>
  <title>Layer 1</title>
  <path d="m44.405,13l-0.0022,117.996m569.5952,0.014l-570.0002,-0.01" stroke="#eff3f9" id="svg_7"/>
  <path stroke="#000000" stroke-opacity="0" d="m18.1133,132.968c-0.568,0.792 -1.364,1.188 -2.388,1.188c-1.024,0 -1.82,-0.396 -2.388,-1.188c-0.568,-0.792 -0.852,-1.848 -0.852,-3.168c0,-1.32 0.284,-2.376 0.852,-3.168c0.568,-0.792 1.364,-1.188 2.388,-1.188c1.024,0 1.82,0.396 2.388,1.188c0.568,0.792 0.852,1.848 0.852,3.168c0,1.32 -0.284,2.376 -0.852,3.168zm-3.96,-0.756c0.368,0.568 0.892,0.852 1.572,0.852c0.68,0 1.204,-0.284 1.572,-0.852c0.376,-0.568 0.564,-1.372 0.564,-2.412c0,-1.04 -0.188,-1.844 -0.564,-2.412c-0.368,-0.576 -0.892,-0.864 -1.572,-0.864c-0.68,0 -1.204,0.284 -1.572,0.852c-0.368,0.568 -0.552,1.376 -0.552,2.424c0,1.04 0.184,1.844 0.552,2.412zm7.6722,-3.048c-0.544,0 -0.996,-0.18 -1.356,-0.54c-0.36,-0.36 -0.54,-0.8 -0.54,-1.32c0,-0.512 0.18,-0.948 0.54,-1.308c0.368,-0.368 0.82,-0.552 1.356,-0.552c0.544,0 0.996,0.18 1.356,0.54c0.36,0.36 0.54,0.8 0.54,1.32c0,0.52 -0.18,0.96 -0.54,1.32c-0.352,0.36 -0.804,0.54 -1.356,0.54zm-0.696,-1.152c0.184,0.184 0.416,0.276 0.696,0.276c0.28,0 0.508,-0.096 0.684,-0.288c0.184,-0.192 0.276,-0.424 0.276,-0.696c0,-0.272 -0.092,-0.5 -0.276,-0.684c-0.176,-0.192 -0.404,-0.288 -0.684,-0.288c-0.28,0 -0.512,0.096 -0.696,0.288c-0.176,0.184 -0.264,0.412 -0.264,0.684c0,0.28 0.088,0.516 0.264,0.708zm-0.636,4.8l5.58,-6.24l0.588,0.324l-5.592,6.252l-0.576,-0.336zm6.312,0.792c-0.36,0.36 -0.812,0.54 -1.356,0.54c-0.544,0 -0.996,-0.18 -1.356,-0.54c-0.36,-0.36 -0.54,-0.8 -0.54,-1.32c0,-0.52 0.18,-0.96 0.54,-1.32c0.36,-0.36 0.812,-0.54 1.356,-0.54c0.544,0 0.996,0.18 1.356,0.54c0.36,0.36 0.54,0.8 0.54,1.32c0,0.52 -0.18,0.96 -0.54,1.32zm-2.052,-0.624c0.184,0.184 0.416,0.276 0.696,0.276c0.28,0 0.508,-0.092 0.684,-0.276c0.184,-0.192 0.276,-0.424 0.276,-0.696c0,-0.272 -0.092,-0.5 -0.276,-0.684c-0.176,-0.192 -0.404,-0.288 -0.684,-0.288c-0.28,0 -0.512,0.096 -0.696,0.288c-0.176,0.184 -0.264,0.412 -0.264,0.684c0,0.272 0.088,0.504 0.264,0.696z" fill="#979797" id="svg_8"/>
  <path d="m6.1664,75l0,-0.912l2.964,-3.024c0.792,-0.792 1.188,-1.472 1.188,-2.04c0,-0.472 -0.144,-0.84 -0.432,-1.104c-0.288,-0.264 -0.64,-0.396 -1.056,-0.396c-0.792,0 -1.368,0.376 -1.728,1.128l-0.936,-0.552c0.264,-0.544 0.628,-0.956 1.092,-1.236c0.472,-0.28 0.992,-0.42 1.56,-0.42c0.704,0 1.316,0.232 1.836,0.696c0.52,0.464 0.78,1.088 0.78,1.872c0,0.848 -0.5,1.772 -1.5,2.772l-2.148,2.136l3.804,0l0,1.08l-5.424,0zm11.9469,-1.032c-0.568,0.792 -1.364,1.188 -2.388,1.188c-1.024,0 -1.82,-0.396 -2.388,-1.188c-0.568,-0.792 -0.852,-1.848 -0.852,-3.168c0,-1.32 0.284,-2.376 0.852,-3.168c0.568,-0.792 1.364,-1.188 2.388,-1.188c1.024,0 1.82,0.396 2.388,1.188c0.568,0.792 0.852,1.848 0.852,3.168c0,1.32 -0.284,2.376 -0.852,3.168zm-3.96,-0.756c0.368,0.568 0.892,0.852 1.572,0.852c0.68,0 1.204,-0.284 1.572,-0.852c0.376,-0.568 0.564,-1.372 0.564,-2.412c0,-1.04 -0.188,-1.844 -0.564,-2.412c-0.368,-0.576 -0.892,-0.864 -1.572,-0.864c-0.68,0 -1.204,0.284 -1.572,0.852c-0.368,0.568 -0.552,1.376 -0.552,2.424c0,1.04 0.184,1.844 0.552,2.412zm7.6722,-3.048c-0.544,0 -0.996,-0.18 -1.356,-0.54c-0.36,-0.36 -0.54,-0.8 -0.54,-1.32c0,-0.512 0.18,-0.948 0.54,-1.308c0.368,-0.368 0.82,-0.552 1.356,-0.552c0.544,0 0.996,0.18 1.356,0.54c0.36,0.36 0.54,0.8 0.54,1.32c0,0.52 -0.18,0.96 -0.54,1.32c-0.352,0.36 -0.804,0.54 -1.356,0.54zm-0.696,-1.152c0.184,0.184 0.416,0.276 0.696,0.276c0.28,0 0.508,-0.096 0.684,-0.288c0.184,-0.192 0.276,-0.424 0.276,-0.696c0,-0.272 -0.092,-0.5 -0.276,-0.684c-0.176,-0.192 -0.404,-0.288 -0.684,-0.288c-0.28,0 -0.512,0.096 -0.696,0.288c-0.176,0.184 -0.264,0.412 -0.264,0.684c0,0.28 0.088,0.516 0.264,0.708zm-0.636,4.8l5.58,-6.24l0.588,0.324l-5.592,6.252l-0.576,-0.336zm6.312,0.792c-0.36,0.36 -0.812,0.54 -1.356,0.54c-0.544,0 -0.996,-0.18 -1.356,-0.54c-0.36,-0.36 -0.54,-0.8 -0.54,-1.32c0,-0.52 0.18,-0.96 0.54,-1.32c0.36,-0.36 0.812,-0.54 1.356,-0.54c0.544,0 0.996,0.18 1.356,0.54c0.36,0.36 0.54,0.8 0.54,1.32c0,0.52 -0.18,0.96 -0.54,1.32zm-2.052,-0.624c0.184,0.184 0.416,0.276 0.696,0.276c0.28,0 0.508,-0.092 0.684,-0.276c0.184,-0.192 0.276,-0.424 0.276,-0.696c0,-0.272 -0.092,-0.5 -0.276,-0.684c-0.176,-0.192 -0.404,-0.288 -0.684,-0.288c-0.28,0 -0.512,0.096 -0.696,0.288c-0.176,0.184 -0.264,0.412 -0.264,0.684c0,0.272 0.088,0.504 0.264,0.696z" fill="#979797" id="svg_9"/>
  <path d="m11.6924,14.36l0,1.044l-1.02,0l0,1.596l-1.116,0l0,-1.596l-4.284,0l0,-1.044l3.012,-5.76l1.2,0l-3.012,5.76l3.084,0l0,-2.376l1.116,0l0,2.376l1.02,0zm6.4209,1.608c-0.568,0.792 -1.364,1.188 -2.388,1.188c-1.024,0 -1.82,-0.396 -2.388,-1.188c-0.568,-0.792 -0.852,-1.848 -0.852,-3.168c0,-1.32 0.284,-2.376 0.852,-3.168c0.568,-0.792 1.364,-1.188 2.388,-1.188c1.024,0 1.82,0.396 2.388,1.188c0.568,0.792 0.852,1.848 0.852,3.168c0,1.32 -0.284,2.376 -0.852,3.168zm-3.96,-0.756c0.368,0.568 0.892,0.852 1.572,0.852c0.68,0 1.204,-0.284 1.572,-0.852c0.376,-0.568 0.564,-1.372 0.564,-2.412c0,-1.04 -0.188,-1.844 -0.564,-2.412c-0.368,-0.576 -0.892,-0.864 -1.572,-0.864c-0.68,0 -1.204,0.284 -1.572,0.852c-0.368,0.568 -0.552,1.376 -0.552,2.424c0,1.04 0.184,1.844 0.552,2.412zm7.6722,-3.048c-0.544,0 -0.996,-0.18 -1.356,-0.54c-0.36,-0.36 -0.54,-0.8 -0.54,-1.32c0,-0.512 0.18,-0.948 0.54,-1.308c0.368,-0.368 0.82,-0.552 1.356,-0.552c0.544,0 0.996,0.18 1.356,0.54c0.36,0.36 0.54,0.8 0.54,1.32c0,0.52 -0.18,0.96 -0.54,1.32c-0.352,0.36 -0.804,0.54 -1.356,0.54zm-0.696,-1.152c0.184,0.184 0.416,0.276 0.696,0.276c0.28,0 0.508,-0.096 0.684,-0.288c0.184,-0.192 0.276,-0.424 0.276,-0.696c0,-0.272 -0.092,-0.5 -0.276,-0.684c-0.176,-0.192 -0.404,-0.288 -0.684,-0.288c-0.28,0 -0.512,0.096 -0.696,0.288c-0.176,0.184 -0.264,0.412 -0.264,0.684c0,0.28 0.088,0.516 0.264,0.708zm-0.636,4.8l5.58,-6.24l0.588,0.324l-5.592,6.252l-0.576,-0.336zm6.312,0.792c-0.36,0.36 -0.812,0.54 -1.356,0.54c-0.544,0 -0.996,-0.18 -1.356,-0.54c-0.36,-0.36 -0.54,-0.8 -0.54,-1.32c0,-0.52 0.18,-0.96 0.54,-1.32c0.36,-0.36 0.812,-0.54 1.356,-0.54c0.544,0 0.996,0.18 1.356,0.54c0.36,0.36 0.54,0.8 0.54,1.32c0,0.52 -0.18,0.96 -0.54,1.32zm-2.052,-0.624c0.184,0.184 0.416,0.276 0.696,0.276c0.28,0 0.508,-0.092 0.684,-0.276c0.184,-0.192 0.276,-0.424 0.276,-0.696c0,-0.272 -0.092,-0.5 -0.276,-0.684c-0.176,-0.192 -0.404,-0.288 -0.684,-0.288c-0.28,0 -0.512,0.096 -0.696,0.288c-0.176,0.184 -0.264,0.412 -0.264,0.684c0,0.272 0.088,0.504 0.264,0.696z" fill="#979797" id="svg_10"/>
  <path d="m33,13l581.002,0" stroke="#eff3f9" id="svg_11"/>
  <path d="m35.2582,71.703l574.1518,0" stroke="#eff3f9" id="svg_12"/>
  <path d="m72.71,146.189l0,1.128l-3.768,1.548l3.768,1.536l0,1.128l-4.956,-2.16l0,-1.02l4.956,-2.16zm6.041,-1.524l0.96,0l0,8.4l-1.104,0l0,-7.2l-1.788,0.528l-0.276,-0.96l2.208,-0.768zm6.798,4.056c0.408,0.208 0.728,0.488 0.96,0.84c0.232,0.352 0.348,0.752 0.348,1.2c0,0.768 -0.268,1.372 -0.804,1.812c-0.536,0.432 -1.228,0.648 -2.076,0.648c-0.84,0 -1.528,-0.216 -2.064,-0.648c-0.536,-0.44 -0.804,-1.044 -0.804,-1.812c0,-0.448 0.116,-0.848 0.348,-1.2c0.232,-0.352 0.552,-0.632 0.96,-0.84c-0.688,-0.432 -1.032,-1.044 -1.032,-1.836c0,-0.76 0.252,-1.344 0.756,-1.752c0.512,-0.416 1.124,-0.624 1.836,-0.624c0.72,0 1.332,0.208 1.836,0.624c0.512,0.408 0.768,0.992 0.768,1.752c0,0.792 -0.344,1.404 -1.032,1.836zm-1.572,-3.144c-0.424,0 -0.78,0.112 -1.068,0.336c-0.28,0.224 -0.42,0.556 -0.42,0.996c0,0.424 0.144,0.756 0.432,0.996c0.288,0.232 0.64,0.348 1.056,0.348c0.416,0 0.768,-0.116 1.056,-0.348c0.288,-0.24 0.432,-0.572 0.432,-0.996c0,-0.44 -0.14,-0.772 -0.42,-0.996c-0.28,-0.224 -0.636,-0.336 -1.068,-0.336zm0,6.576c0.536,0 0.964,-0.124 1.284,-0.372c0.328,-0.256 0.492,-0.62 0.492,-1.092c0,-0.464 -0.164,-0.82 -0.492,-1.068c-0.32,-0.256 -0.748,-0.384 -1.284,-0.384c-0.528,0 -0.956,0.128 -1.284,0.384c-0.32,0.248 -0.48,0.604 -0.48,1.068c0,0.472 0.16,0.836 0.48,1.092c0.328,0.248 0.756,0.372 1.284,0.372z" fill="#979797" id="svg_13"/>
  <rect x="58.675" y="128.536" width="21.5272" height="1.63499" fill="#E786D7" id="svg_14"/>
  <rect x="80.202" y="128.536" width="21.5272" height="1.63499" fill="#7F7FD5" id="svg_15"/>
  <path d="m140.31,145.869l0.96,0l0,8.4l-1.104,0l0,-7.2l-1.788,0.528l-0.276,-0.96l2.208,-0.768zm6.797,4.056c0.408,0.208 0.728,0.488 0.96,0.84c0.232,0.352 0.348,0.752 0.348,1.2c0,0.768 -0.268,1.372 -0.804,1.812c-0.536,0.432 -1.228,0.648 -2.076,0.648c-0.84,0 -1.528,-0.216 -2.064,-0.648c-0.536,-0.44 -0.804,-1.044 -0.804,-1.812c0,-0.448 0.116,-0.848 0.348,-1.2c0.232,-0.352 0.552,-0.632 0.96,-0.84c-0.688,-0.432 -1.032,-1.044 -1.032,-1.836c0,-0.76 0.252,-1.344 0.756,-1.752c0.512,-0.416 1.124,-0.624 1.836,-0.624c0.72,0 1.332,0.208 1.836,0.624c0.512,0.408 0.768,0.992 0.768,1.752c0,0.792 -0.344,1.404 -1.032,1.836zm-1.572,-3.144c-0.424,0 -0.78,0.112 -1.068,0.336c-0.28,0.224 -0.42,0.556 -0.42,0.996c0,0.424 0.144,0.756 0.432,0.996c0.288,0.232 0.64,0.348 1.056,0.348c0.416,0 0.768,-0.116 1.056,-0.348c0.288,-0.24 0.432,-0.572 0.432,-0.996c0,-0.44 -0.14,-0.772 -0.42,-0.996c-0.28,-0.224 -0.636,-0.336 -1.068,-0.336zm0,6.576c0.536,0 0.964,-0.124 1.284,-0.372c0.328,-0.256 0.492,-0.62 0.492,-1.092c0,-0.464 -0.164,-0.82 -0.492,-1.068c-0.32,-0.256 -0.748,-0.384 -1.284,-0.384c-0.528,0 -0.956,0.128 -1.284,0.384c-0.32,0.248 -0.48,0.604 -0.48,1.068c0,0.472 0.16,0.836 0.48,1.092c0.328,0.248 0.756,0.372 1.284,0.372zm4.232,-2.268l0,-1.008l4.38,0l0,1.008l-4.38,0zm5.708,3.18l0,-0.912l2.964,-3.024c0.792,-0.792 1.188,-1.472 1.188,-2.04c0,-0.472 -0.144,-0.84 -0.432,-1.104c-0.288,-0.264 -0.64,-0.396 -1.056,-0.396c-0.792,0 -1.368,0.376 -1.728,1.128l-0.936,-0.552c0.264,-0.544 0.628,-0.956 1.092,-1.236c0.472,-0.28 0.992,-0.42 1.56,-0.42c0.704,0 1.316,0.232 1.836,0.696c0.52,0.464 0.78,1.088 0.78,1.872c0,0.848 -0.5,1.772 -1.5,2.772l-2.148,2.136l3.804,0l0,1.08l-5.424,0zm8.214,-8.4l0.96,0l0,8.4l-1.104,0l0,-7.2l-1.788,0.528l-0.276,-0.96l2.208,-0.768z" fill="#979797" id="svg_16"/>
  <rect x="130.236" y="129.61" width="21.5272" height="1.63499" fill="#E786D7" id="svg_17"/>
  <path d="m151.763,77.538c0,-2.762 2.238,-5 5,-5l11.527,0c2.761,0 5,2.238 5,5l0,53.707l-21.527,0l0,-53.707z" fill="#7F7FD5" id="svg_18"/>
  <path d="m206.854,153.139l0,-0.912l2.964,-3.024c0.792,-0.792 1.188,-1.472 1.188,-2.04c0,-0.472 -0.144,-0.84 -0.432,-1.104c-0.288,-0.264 -0.64,-0.396 -1.056,-0.396c-0.792,0 -1.368,0.376 -1.728,1.128l-0.936,-0.552c0.264,-0.544 0.628,-0.956 1.092,-1.236c0.472,-0.28 0.992,-0.42 1.56,-0.42c0.704,0 1.316,0.232 1.836,0.696c0.52,0.464 0.78,1.088 0.78,1.872c0,0.848 -0.5,1.772 -1.5,2.772l-2.148,2.136l3.804,0l0,1.08l-5.424,0zm8.213,-8.4l0.96,0l0,8.4l-1.104,0l0,-7.2l-1.788,0.528l-0.276,-0.96l2.208,-0.768zm2.801,5.22l0,-1.008l4.38,0l0,1.008l-4.38,0zm5.708,3.18l0,-0.912l2.964,-3.024c0.792,-0.792 1.188,-1.472 1.188,-2.04c0,-0.472 -0.144,-0.84 -0.432,-1.104c-0.288,-0.264 -0.64,-0.396 -1.056,-0.396c-0.792,0 -1.368,0.376 -1.728,1.128l-0.936,-0.552c0.264,-0.544 0.628,-0.956 1.092,-1.236c0.472,-0.28 0.992,-0.42 1.56,-0.42c0.704,0 1.316,0.232 1.836,0.696c0.52,0.464 0.78,1.088 0.78,1.872c0,0.848 -0.5,1.772 -1.5,2.772l-2.148,2.136l3.804,0l0,1.08l-5.424,0zm12.393,-2.64l0,1.044l-1.02,0l0,1.596l-1.116,0l0,-1.596l-4.284,0l0,-1.044l3.012,-5.76l1.2,0l-3.012,5.76l3.084,0l0,-2.376l1.116,0l0,2.376l1.02,0z" fill="#979797" id="svg_19"/>
  <rect x="199.796" y="128.162" width="21.5272" height="1.63499" fill="#E786D7" id="svg_20"/>
  <path d="m221.323,76.538c0,-2.762 2.238,-5 5,-5l11.527,0c2.761,0 5,2.238 5,5l0,53.258l-21.527,0l0,-53.258z" fill="#7F7FD5" id="svg_21"/>
  <path d="m277.699,153.74l0,-0.912l2.964,-3.024c0.792,-0.792 1.188,-1.472 1.188,-2.04c0,-0.472 -0.144,-0.84 -0.432,-1.104c-0.288,-0.264 -0.64,-0.396 -1.056,-0.396c-0.792,0 -1.368,0.376 -1.728,1.128l-0.936,-0.552c0.264,-0.544 0.628,-0.956 1.092,-1.236c0.472,-0.28 0.992,-0.42 1.56,-0.42c0.704,0 1.316,0.232 1.836,0.696c0.52,0.464 0.78,1.088 0.78,1.872c0,0.848 -0.5,1.772 -1.5,2.772l-2.148,2.136l3.804,0l0,1.08l-5.424,0zm12.394,-2.64l0,1.044l-1.02,0l0,1.596l-1.116,0l0,-1.596l-4.284,0l0,-1.044l3.012,-5.76l1.2,0l-3.012,5.76l3.084,0l0,-2.376l1.116,0l0,2.376l1.02,0zm1.152,-0.54l0,-1.008l4.38,0l0,1.008l-4.38,0zm5.708,3.18l0,-0.912l2.964,-3.024c0.792,-0.792 1.188,-1.472 1.188,-2.04c0,-0.472 -0.144,-0.84 -0.432,-1.104c-0.288,-0.264 -0.64,-0.396 -1.056,-0.396c-0.792,0 -1.368,0.376 -1.728,1.128l-0.936,-0.552c0.264,-0.544 0.628,-0.956 1.092,-1.236c0.472,-0.28 0.992,-0.42 1.56,-0.42c0.704,0 1.316,0.232 1.836,0.696c0.52,0.464 0.78,1.088 0.78,1.872c0,0.848 -0.5,1.772 -1.5,2.772l-2.148,2.136l3.804,0l0,1.08l-5.424,0zm5.878,-8.4l5.244,0l0,0.996l-3.06,7.404l-1.164,0l3.036,-7.344l-4.056,0l0,-1.056z" fill="#979797" id="svg_22"/>
  <path d="m271.356,35.539c0,-2.762 2.239,-5 5,-5l11.527,0c2.762,0 5,2.238 5,5l0,95.176l-21.527,0l0,-95.176z" fill="#E786D7" id="svg_23"/>
  <path d="m292.887,76.538c0,-2.762 2.239,-5 5,-5l12.007,0c2.761,0 5,2.238 5,5l0,53.998l-22.007,0l0,-53.998z" fill="#7F7FD5" id="svg_24"/>
  <path d="m346.99,153.139l0,-0.912l2.964,-3.024c0.792,-0.792 1.188,-1.472 1.188,-2.04c0,-0.472 -0.144,-0.84 -0.432,-1.104c-0.288,-0.264 -0.64,-0.396 -1.056,-0.396c-0.792,0 -1.368,0.376 -1.728,1.128l-0.936,-0.552c0.264,-0.544 0.628,-0.956 1.092,-1.236c0.472,-0.28 0.992,-0.42 1.56,-0.42c0.704,0 1.316,0.232 1.836,0.696c0.52,0.464 0.78,1.088 0.78,1.872c0,0.848 -0.5,1.772 -1.5,2.772l-2.148,2.136l3.804,0l0,1.08l-5.424,0zm5.878,-8.4l5.244,0l0,0.996l-3.06,7.404l-1.164,0l3.036,-7.344l-4.056,0l0,-1.056zm6.203,5.22l0,-1.008l4.38,0l0,1.008l-4.38,0zm9.068,-1.776c0.64,0.12 1.164,0.396 1.572,0.828c0.408,0.432 0.612,0.98 0.612,1.644c0,0.816 -0.28,1.46 -0.84,1.932c-0.56,0.472 -1.24,0.708 -2.04,0.708c-0.64,0 -1.208,-0.144 -1.704,-0.432c-0.496,-0.296 -0.848,-0.72 -1.056,-1.272l0.936,-0.552c0.248,0.776 0.856,1.164 1.824,1.164c0.52,0 0.944,-0.136 1.272,-0.408c0.328,-0.272 0.492,-0.652 0.492,-1.14c0,-0.488 -0.164,-0.868 -0.492,-1.14c-0.328,-0.28 -0.752,-0.42 -1.272,-0.42l-0.288,0l-0.444,-0.684l1.944,-2.628l-3.732,0l0,-1.044l5.04,0l0,0.984l-1.824,2.46zm8.798,3.924c-0.568,0.792 -1.364,1.188 -2.388,1.188c-1.024,0 -1.82,-0.396 -2.388,-1.188c-0.568,-0.792 -0.852,-1.848 -0.852,-3.168c0,-1.32 0.284,-2.376 0.852,-3.168c0.568,-0.792 1.364,-1.188 2.388,-1.188c1.024,0 1.82,0.396 2.388,1.188c0.568,0.792 0.852,1.848 0.852,3.168c0,1.32 -0.284,2.376 -0.852,3.168zm-3.96,-0.756c0.368,0.568 0.892,0.852 1.572,0.852c0.68,0 1.204,-0.284 1.572,-0.852c0.376,-0.568 0.564,-1.372 0.564,-2.412c0,-1.04 -0.188,-1.844 -0.564,-2.412c-0.368,-0.576 -0.892,-0.864 -1.572,-0.864c-0.68,0 -1.204,0.284 -1.572,0.852c-0.368,0.568 -0.552,1.376 -0.552,2.424c0,1.04 0.184,1.844 0.552,2.412z" fill="#979797" id="svg_25"/>
  <path d="m340.916,76.538c0,-2.762 2.239,-5 5,-5l11.528,0c2.761,0 5,2.238 5,5l0,53.707l-21.528,0l0,-53.707z" fill="#E786D7" id="svg_26"/>
  <rect x="362.443" y="127.792" width="21.5272" height="1.63499" fill="#7F7FD5" id="svg_27"/>
  <path d="m420.277,148.109c0.64,0.12 1.164,0.396 1.572,0.828c0.408,0.432 0.612,0.98 0.612,1.644c0,0.816 -0.28,1.46 -0.84,1.932c-0.56,0.472 -1.24,0.708 -2.04,0.708c-0.64,0 -1.208,-0.144 -1.704,-0.432c-0.496,-0.296 -0.848,-0.72 -1.056,-1.272l0.936,-0.552c0.248,0.776 0.856,1.164 1.824,1.164c0.52,0 0.944,-0.136 1.272,-0.408c0.328,-0.272 0.492,-0.652 0.492,-1.14c0,-0.488 -0.164,-0.868 -0.492,-1.14c-0.328,-0.28 -0.752,-0.42 -1.272,-0.42l-0.288,0l-0.444,-0.684l1.944,-2.628l-3.732,0l0,-1.044l5.04,0l0,0.984l-1.824,2.46zm8.798,3.924c-0.568,0.792 -1.364,1.188 -2.388,1.188c-1.024,0 -1.82,-0.396 -2.388,-1.188c-0.568,-0.792 -0.852,-1.848 -0.852,-3.168c0,-1.32 0.284,-2.376 0.852,-3.168c0.568,-0.792 1.364,-1.188 2.388,-1.188c1.024,0 1.82,0.396 2.388,1.188c0.568,0.792 0.852,1.848 0.852,3.168c0,1.32 -0.284,2.376 -0.852,3.168zm-3.96,-0.756c0.368,0.568 0.892,0.852 1.572,0.852c0.68,0 1.204,-0.284 1.572,-0.852c0.376,-0.568 0.564,-1.372 0.564,-2.412c0,-1.04 -0.188,-1.844 -0.564,-2.412c-0.368,-0.576 -0.892,-0.864 -1.572,-0.864c-0.68,0 -1.204,0.284 -1.572,0.852c-0.368,0.568 -0.552,1.376 -0.552,2.424c0,1.04 0.184,1.844 0.552,2.412zm6.251,-1.392l0,-1.008l4.38,0l0,1.008l-4.38,0zm9.068,-1.776c0.64,0.12 1.164,0.396 1.572,0.828c0.408,0.432 0.612,0.98 0.612,1.644c0,0.816 -0.28,1.46 -0.84,1.932c-0.56,0.472 -1.24,0.708 -2.04,0.708c-0.64,0 -1.208,-0.144 -1.704,-0.432c-0.496,-0.296 -0.848,-0.72 -1.056,-1.272l0.936,-0.552c0.248,0.776 0.856,1.164 1.824,1.164c0.52,0 0.944,-0.136 1.272,-0.408c0.328,-0.272 0.492,-0.652 0.492,-1.14c0,-0.488 -0.164,-0.868 -0.492,-1.14c-0.328,-0.28 -0.752,-0.42 -1.272,-0.42l-0.288,0l-0.444,-0.684l1.944,-2.628l-3.732,0l0,-1.044l5.04,0l0,0.984l-1.824,2.46zm5.811,-0.168c0.792,0 1.46,0.236 2.004,0.708c0.552,0.464 0.828,1.108 0.828,1.932c0,0.816 -0.28,1.46 -0.84,1.932c-0.56,0.472 -1.24,0.708 -2.04,0.708c-0.64,0 -1.212,-0.152 -1.716,-0.456c-0.504,-0.312 -0.856,-0.76 -1.056,-1.344l0.948,-0.54c0.112,0.408 0.328,0.72 0.648,0.936c0.32,0.208 0.712,0.312 1.176,0.312c0.528,0 0.956,-0.136 1.284,-0.408c0.328,-0.272 0.492,-0.652 0.492,-1.14c0,-0.488 -0.164,-0.868 -0.492,-1.14c-0.328,-0.28 -0.748,-0.42 -1.26,-0.42l-2.376,0l0.312,-4.356l4.596,0l0,1.044l-3.588,0l-0.144,2.232l1.224,0z" fill="#979797" id="svg_28"/>
  <rect x="411.477" y="128.536" width="21.5272" height="1.63499" fill="#E786D7" id="svg_29"/>
  <rect x="433.004" y="128.536" width="21.5272" height="1.63499" fill="#7F7FD5" id="svg_30"/>
  <path d="m493.026,148.348c0.64,0.12 1.164,0.396 1.572,0.828c0.408,0.432 0.612,0.98 0.612,1.644c0,0.816 -0.28,1.46 -0.84,1.932c-0.56,0.472 -1.24,0.708 -2.04,0.708c-0.64,0 -1.208,-0.144 -1.704,-0.432c-0.496,-0.296 -0.848,-0.72 -1.056,-1.272l0.936,-0.552c0.248,0.776 0.856,1.164 1.824,1.164c0.52,0 0.944,-0.136 1.272,-0.408c0.328,-0.272 0.492,-0.652 0.492,-1.14c0,-0.488 -0.164,-0.868 -0.492,-1.14c-0.328,-0.28 -0.752,-0.42 -1.272,-0.42l-0.288,0l-0.444,-0.684l1.944,-2.628l-3.732,0l0,-1.044l5.04,0l0,0.984l-1.824,2.46zm5.811,-0.168c0.792,0 1.46,0.236 2.004,0.708c0.552,0.464 0.828,1.108 0.828,1.932c0,0.816 -0.28,1.46 -0.84,1.932c-0.56,0.472 -1.24,0.708 -2.04,0.708c-0.64,0 -1.212,-0.152 -1.716,-0.456c-0.504,-0.312 -0.856,-0.76 -1.056,-1.344l0.948,-0.54c0.112,0.408 0.328,0.72 0.648,0.936c0.32,0.208 0.712,0.312 1.176,0.312c0.528,0 0.956,-0.136 1.284,-0.408c0.328,-0.272 0.492,-0.652 0.492,-1.14c0,-0.488 -0.164,-0.868 -0.492,-1.14c-0.328,-0.28 -0.748,-0.42 -1.26,-0.42l-2.376,0l0.312,-4.356l4.596,0l0,1.044l-3.588,0l-0.144,2.232l1.224,0zm4.176,1.944l0,-1.008l4.38,0l0,1.008l-4.38,0zm11.984,0.54l0,1.044l-1.02,0l0,1.596l-1.116,0l0,-1.596l-4.284,0l0,-1.044l3.012,-5.76l1.2,0l-3.012,5.76l3.084,0l0,-2.376l1.116,0l0,2.376l1.02,0zm6.421,1.608c-0.568,0.792 -1.364,1.188 -2.388,1.188c-1.024,0 -1.82,-0.396 -2.388,-1.188c-0.568,-0.792 -0.852,-1.848 -0.852,-3.168c0,-1.32 0.284,-2.376 0.852,-3.168c0.568,-0.792 1.364,-1.188 2.388,-1.188c1.024,0 1.82,0.396 2.388,1.188c0.568,0.792 0.852,1.848 0.852,3.168c0,1.32 -0.284,2.376 -0.852,3.168zm-3.96,-0.756c0.368,0.568 0.892,0.852 1.572,0.852c0.68,0 1.204,-0.284 1.572,-0.852c0.376,-0.568 0.564,-1.372 0.564,-2.412c0,-1.04 -0.188,-1.844 -0.564,-2.412c-0.368,-0.576 -0.892,-0.864 -1.572,-0.864c-0.68,0 -1.204,0.284 -1.572,0.852c-0.368,0.568 -0.552,1.376 -0.552,2.424c0,1.04 0.184,1.844 0.552,2.412z" fill="#979797" id="svg_31"/>
  <path d="m481.037,105.537c0,-2.762 2.238,-5 5,-5l11.527,0c2.761,0 5,2.238 5,5l0,24.873l-21.527,0l0,-24.873z" fill="#E786D7" id="svg_32"/>
  <rect x="504.564" y="128.775" width="21.5272" height="1.63499" fill="#7F7FD5" id="svg_33"/>
  <path d="m564.841,147.637l4.956,2.16l0,1.02l-4.956,2.16l0,-1.128l3.768,-1.536l-3.768,-1.548l0,-1.128zm12.329,4.236l0,1.044l-1.02,0l0,1.596l-1.116,0l0,-1.596l-4.284,0l0,-1.044l3.012,-5.76l1.2,0l-3.012,5.76l3.084,0l0,-2.376l1.116,0l0,2.376l1.02,0zm6.421,1.608c-0.568,0.792 -1.364,1.188 -2.388,1.188c-1.024,0 -1.82,-0.396 -2.388,-1.188c-0.568,-0.792 -0.852,-1.848 -0.852,-3.168c0,-1.32 0.284,-2.376 0.852,-3.168c0.568,-0.792 1.364,-1.188 2.388,-1.188c1.024,0 1.82,0.396 2.388,1.188c0.568,0.792 0.852,1.848 0.852,3.168c0,1.32 -0.284,2.376 -0.852,3.168zm-3.96,-0.756c0.368,0.568 0.892,0.852 1.572,0.852c0.68,0 1.204,-0.284 1.572,-0.852c0.376,-0.568 0.564,-1.372 0.564,-2.412c0,-1.04 -0.188,-1.844 -0.564,-2.412c-0.368,-0.576 -0.892,-0.864 -1.572,-0.864c-0.68,0 -1.204,0.284 -1.572,0.852c-0.368,0.568 -0.552,1.376 -0.552,2.424c0,1.04 0.184,1.844 0.552,2.412z" fill="#979797" id="svg_34"/>
  <rect x="556.055" y="128.985" width="21.5272" height="1.63499" fill="#E786D7" id="svg_35"/>
  <path d="m577.583,112.537c0,-2.762 2.238,-5 5,-5l11.527,0c2.761,0 5,2.238 5,5l0,18.082l-21.527,0l0,-18.082z" fill="#7F7FD5" id="svg_36"/>
  <path d="m29.3018,13.46l5.6137,0" stroke="#979797" id="svg_37"/>
  <path d="m29.3017,72.165l5.6137,0" stroke="#979797" id="svg_38"/>
  <path d="m29.3017,131.28l5.6137,0" stroke="#979797" id="svg_39"/>
  <path d="m116.93,13l0,118" stroke="#eff3f9" id="svg_40"/>
  <path d="m187.888,13l0,118" stroke="#eff3f9" id="svg_41"/>
  <path d="m258.846,13l0,118" stroke="#eff3f9" id="svg_42"/>
  <path d="m329.804,13l0,118" stroke="#eff3f9" id="svg_43"/>
  <path d="m400.762,13l0,118" stroke="#eff3f9" id="svg_44"/>
  <path d="m471.72,13l0,118" stroke="#eff3f9" id="svg_45"/>
  <path d="m542.678,13l0,118" stroke="#eff3f9" id="svg_46"/>
  <path d="m613.636,13l0,118" stroke="#eff3f9" id="svg_47"/>
 </g>
</svg>