<svg width="137" height="123" xmlns="http://www.w3.org/2000/svg">
 <g>
  <title>background</title>
  <rect x="-1" y="-1" width="98.478824" height="88.619674" id="canvas_background" fill="none"/>
 </g>

 <g>
  <title>Layer 1</title>
  <path d="m193.084,125.632c0.824,0.456 1.236,1.136 1.236,2.04c0,0.768 -0.268,1.376 -0.804,1.824c-0.536,0.44 -1.248,0.66 -2.136,0.66c-0.888,0 -1.604,-0.22 -2.148,-0.66c-0.536,-0.448 -0.804,-1.056 -0.804,-1.824c0,-0.432 0.108,-0.824 0.324,-1.176c0.216,-0.36 0.52,-0.648 0.912,-0.864c-0.632,-0.416 -0.948,-1.008 -0.948,-1.776c0,-0.768 0.256,-1.36 0.768,-1.776c0.512,-0.424 1.144,-0.636 1.896,-0.636c0.744,0 1.372,0.212 1.884,0.636c0.52,0.416 0.78,1.008 0.78,1.776c0,0.768 -0.32,1.36 -0.96,1.776zm-1.704,-2.88c-0.376,0 -0.684,0.1 -0.924,0.3c-0.24,0.2 -0.36,0.488 -0.36,0.864c0,0.36 0.12,0.644 0.36,0.852c0.248,0.208 0.556,0.312 0.924,0.312c0.36,0 0.664,-0.104 0.912,-0.312c0.248,-0.208 0.372,-0.492 0.372,-0.852c0,-0.376 -0.124,-0.664 -0.372,-0.864c-0.24,-0.2 -0.544,-0.3 -0.912,-0.3zm0,6.096c0.464,0 0.84,-0.112 1.128,-0.336c0.288,-0.232 0.432,-0.556 0.432,-0.972c0,-0.416 -0.144,-0.736 -0.432,-0.96c-0.288,-0.232 -0.664,-0.348 -1.128,-0.348c-0.472,0 -0.852,0.116 -1.14,0.348c-0.288,0.224 -0.432,0.544 -0.432,0.96c0,0.416 0.144,0.74 0.432,0.972c0.288,0.224 0.668,0.336 1.14,0.336zm6.748,-4.428c0.872,0 1.584,0.268 2.136,0.804c0.552,0.528 0.828,1.216 0.828,2.064c0,0.848 -0.276,1.54 -0.828,2.076c-0.552,0.528 -1.264,0.792 -2.136,0.792c-0.88,0 -1.596,-0.264 -2.148,-0.792c-0.552,-0.536 -0.828,-1.228 -0.828,-2.076c0,-0.64 0.168,-1.204 0.504,-1.692l2.664,-3.996l1.572,0l-1.92,2.82l0.156,0zm0,4.428c0.464,0 0.844,-0.14 1.14,-0.42c0.296,-0.288 0.444,-0.668 0.444,-1.14c0,-0.472 -0.148,-0.848 -0.444,-1.128c-0.296,-0.288 -0.676,-0.432 -1.14,-0.432c-0.472,0 -0.856,0.144 -1.152,0.432c-0.296,0.28 -0.444,0.656 -0.444,1.128c0,0.472 0.148,0.852 0.444,1.14c0.296,0.28 0.68,0.42 1.152,0.42zm6.859,-4.116c-0.368,0.368 -0.832,0.552 -1.392,0.552c-0.56,0 -1.028,-0.184 -1.404,-0.552c-0.376,-0.376 -0.564,-0.832 -0.564,-1.368c0,-0.536 0.188,-0.988 0.564,-1.356c0.376,-0.376 0.844,-0.564 1.404,-0.564c0.56,0 1.024,0.184 1.392,0.552c0.376,0.368 0.564,0.824 0.564,1.368c0,0.536 -0.188,0.992 -0.564,1.368zm-1.404,-0.504c0.256,0 0.464,-0.084 0.624,-0.252c0.16,-0.168 0.24,-0.372 0.24,-0.612c0,-0.248 -0.08,-0.456 -0.24,-0.624c-0.16,-0.168 -0.368,-0.252 -0.624,-0.252c-0.248,0 -0.452,0.084 -0.612,0.252c-0.16,0.168 -0.24,0.376 -0.24,0.624c0,0.24 0.08,0.444 0.24,0.612c0.16,0.168 0.364,0.252 0.612,0.252zm-1.248,4.536l5.532,-6.156l0.648,0.372l-5.532,6.168l-0.648,-0.384zm5.1,1.38c-0.56,0 -1.028,-0.184 -1.404,-0.552c-0.376,-0.376 -0.564,-0.832 -0.564,-1.368c0,-0.536 0.188,-0.988 0.564,-1.356c0.376,-0.376 0.844,-0.564 1.404,-0.564c0.552,0 1.016,0.188 1.392,0.564c0.376,0.368 0.564,0.82 0.564,1.356c0,0.536 -0.188,0.992 -0.564,1.368c-0.376,0.368 -0.84,0.552 -1.392,0.552zm-0.012,-1.056c0.256,0 0.464,-0.084 0.624,-0.252c0.16,-0.168 0.24,-0.372 0.24,-0.612c0,-0.248 -0.08,-0.456 -0.24,-0.624c-0.16,-0.168 -0.368,-0.252 -0.624,-0.252c-0.248,0 -0.452,0.084 -0.612,0.252c-0.16,0.168 -0.24,0.376 -0.24,0.624c0,0.24 0.08,0.444 0.24,0.612c0.16,0.168 0.364,0.252 0.612,0.252z" fill="#FDFDFF" id="svg_3"/>
  <path d="m114.255,9c6.878,5.756 12.392,12.954 16.148,21.079c3.755,8.125 5.659,16.977 5.575,25.921l-58.868,-0.522c-0.8468,-0.008 -1.3011,-0.999 -0.7542,-1.645l37.8992,-44.833z" fill="#E786D7" id="svg_4"/>
  <path d="m99.468,39.6l1.2,0l0,8.4l-1.38,0l0,-6.924l-1.692,0.48l-0.336,-1.176l2.208,-0.78zm8.856,5.604l0,1.284l-0.96,0l0,1.512l-1.392,0l0,-1.512l-4.128,0l0,-1.284l2.892,-5.604l1.5,0l-2.892,5.604l2.628,0l0,-2.184l1.392,0l0,2.184l0.96,0zm3.568,-2.472c-0.368,0.368 -0.832,0.552 -1.392,0.552c-0.56,0 -1.028,-0.184 -1.404,-0.552c-0.376,-0.376 -0.564,-0.832 -0.564,-1.368c0,-0.536 0.188,-0.988 0.564,-1.356c0.376,-0.376 0.844,-0.564 1.404,-0.564c0.56,0 1.024,0.184 1.392,0.552c0.376,0.368 0.564,0.824 0.564,1.368c0,0.536 -0.188,0.992 -0.564,1.368zm-1.404,-0.504c0.256,0 0.464,-0.084 0.624,-0.252c0.16,-0.168 0.24,-0.372 0.24,-0.612c0,-0.248 -0.08,-0.456 -0.24,-0.624c-0.16,-0.168 -0.368,-0.252 -0.624,-0.252c-0.248,0 -0.452,0.084 -0.612,0.252c-0.16,0.168 -0.24,0.376 -0.24,0.624c0,0.24 0.08,0.444 0.24,0.612c0.16,0.168 0.364,0.252 0.612,0.252zm-1.248,4.536l5.532,-6.156l0.648,0.372l-5.532,6.168l-0.648,-0.384zm5.1,1.38c-0.56,0 -1.028,-0.184 -1.404,-0.552c-0.376,-0.376 -0.564,-0.832 -0.564,-1.368c0,-0.536 0.188,-0.988 0.564,-1.356c0.376,-0.376 0.844,-0.564 1.404,-0.564c0.552,0 1.016,0.188 1.392,0.564c0.376,0.368 0.564,0.82 0.564,1.356c0,0.536 -0.188,0.992 -0.564,1.368c-0.376,0.368 -0.84,0.552 -1.392,0.552zm-0.012,-1.056c0.256,0 0.464,-0.084 0.624,-0.252c0.16,-0.168 0.24,-0.372 0.24,-0.612c0,-0.248 -0.08,-0.456 -0.24,-0.624c-0.16,-0.168 -0.368,-0.252 -0.624,-0.252c-0.248,0 -0.452,0.084 -0.612,0.252c-0.16,0.168 -0.24,0.376 -0.24,0.624c0,0.24 0.08,0.444 0.24,0.612c0.16,0.168 0.364,0.252 0.612,0.252z" fill="#FDFDFF" id="svg_5" stroke="null"/>
  <path d="m122,61.5c0,13.752 -4.685,27.094 -13.284,37.827c-8.599,10.733 -20.597,18.216 -34.0183,21.216c-13.4212,3 -27.464,1.338 -39.814,-4.712c-12.35,-6.051 -22.2703,-16.128 -28.1257,-28.571c-5.8555,-12.444 -7.2968,-26.511 -4.0864,-39.883c3.2104,-13.373 10.881,-25.252 21.7475,-33.681c10.8665,-8.4293 24.2805,-12.9045 38.0312,-12.6885c13.7507,0.216 27.0177,5.1103 37.6137,13.8765l-38.564,46.616l60.5,0z" fill="#7F7FD5" id="svg_10" stroke="null"/>
  <path d="m25.5838,71.632c0.824,0.456 1.236,1.136 1.236,2.04c0,0.768 -0.268,1.376 -0.804,1.824c-0.536,0.44 -1.248,0.66 -2.136,0.66c-0.888,0 -1.604,-0.22 -2.148,-0.66c-0.536,-0.448 -0.804,-1.056 -0.804,-1.824c0,-0.432 0.108,-0.824 0.324,-1.176c0.216,-0.36 0.52,-0.648 0.912,-0.864c-0.632,-0.416 -0.948,-1.008 -0.948,-1.776c0,-0.768 0.256,-1.36 0.768,-1.776c0.512,-0.424 1.144,-0.636 1.896,-0.636c0.744,0 1.372,0.212 1.884,0.636c0.52,0.416 0.78,1.008 0.78,1.776c0,0.768 -0.32,1.36 -0.96,1.776zm-1.704,-2.88c-0.376,0 -0.684,0.1 -0.924,0.3c-0.24,0.2 -0.36,0.488 -0.36,0.864c0,0.36 0.12,0.644 0.36,0.852c0.248,0.208 0.556,0.312 0.924,0.312c0.36,0 0.664,-0.104 0.912,-0.312c0.248,-0.208 0.372,-0.492 0.372,-0.852c0,-0.376 -0.124,-0.664 -0.372,-0.864c-0.24,-0.2 -0.544,-0.3 -0.912,-0.3zm0,6.096c0.464,0 0.84,-0.112 1.128,-0.336c0.288,-0.232 0.432,-0.556 0.432,-0.972c0,-0.416 -0.144,-0.736 -0.432,-0.96c-0.288,-0.232 -0.664,-0.348 -1.128,-0.348c-0.472,0 -0.852,0.116 -1.14,0.348c-0.288,0.224 -0.432,0.544 -0.432,0.96c0,0.416 0.144,0.74 0.432,0.972c0.288,0.224 0.668,0.336 1.14,0.336zm6.7478,-4.428c0.872,0 1.584,0.268 2.136,0.804c0.552,0.528 0.828,1.216 0.828,2.064c0,0.848 -0.276,1.54 -0.828,2.076c-0.552,0.528 -1.264,0.792 -2.136,0.792c-0.88,0 -1.596,-0.264 -2.148,-0.792c-0.552,-0.536 -0.828,-1.228 -0.828,-2.076c0,-0.64 0.168,-1.204 0.504,-1.692l2.664,-3.996l1.572,0l-1.92,2.82l0.156,0zm0,4.428c0.464,0 0.844,-0.14 1.14,-0.42c0.296,-0.288 0.444,-0.668 0.444,-1.14c0,-0.472 -0.148,-0.848 -0.444,-1.128c-0.296,-0.288 -0.676,-0.432 -1.14,-0.432c-0.472,0 -0.856,0.144 -1.152,0.432c-0.296,0.28 -0.444,0.656 -0.444,1.128c0,0.472 0.148,0.852 0.444,1.14c0.296,0.28 0.68,0.42 1.152,0.42zm6.8597,-4.116c-0.368,0.368 -0.832,0.552 -1.392,0.552c-0.56,0 -1.028,-0.184 -1.404,-0.552c-0.376,-0.376 -0.564,-0.832 -0.564,-1.368c0,-0.536 0.188,-0.988 0.564,-1.356c0.376,-0.376 0.844,-0.564 1.404,-0.564c0.56,0 1.024,0.184 1.392,0.552c0.376,0.368 0.564,0.824 0.564,1.368c0,0.536 -0.188,0.992 -0.564,1.368zm-1.404,-0.504c0.256,0 0.464,-0.084 0.624,-0.252c0.16,-0.168 0.24,-0.372 0.24,-0.612c0,-0.248 -0.08,-0.456 -0.24,-0.624c-0.16,-0.168 -0.368,-0.252 -0.624,-0.252c-0.248,0 -0.452,0.084 -0.612,0.252c-0.16,0.168 -0.24,0.376 -0.24,0.624c0,0.24 0.08,0.444 0.24,0.612c0.16,0.168 0.364,0.252 0.612,0.252zm-1.248,4.536l5.532,-6.156l0.648,0.372l-5.532,6.168l-0.648,-0.384zm5.1,1.38c-0.56,0 -1.028,-0.184 -1.404,-0.552c-0.376,-0.376 -0.564,-0.832 -0.564,-1.368c0,-0.536 0.188,-0.988 0.564,-1.356c0.376,-0.376 0.844,-0.564 1.404,-0.564c0.552,0 1.016,0.188 1.392,0.564c0.376,0.368 0.564,0.82 0.564,1.356c0,0.536 -0.188,0.992 -0.564,1.368c-0.376,0.368 -0.84,0.552 -1.392,0.552zm-0.012,-1.056c0.256,0 0.464,-0.084 0.624,-0.252c0.16,-0.168 0.24,-0.372 0.24,-0.612c0,-0.248 -0.08,-0.456 -0.24,-0.624c-0.16,-0.168 -0.368,-0.252 -0.624,-0.252c-0.248,0 -0.452,0.084 -0.612,0.252c-0.16,0.168 -0.24,0.376 -0.24,0.624c0,0.24 0.08,0.444 0.24,0.612c0.16,0.168 0.364,0.252 0.612,0.252z" fill="#FDFDFF" id="svg_11"/>
  <path fill="none" stroke="null" stroke-width="null" stroke-opacity="null" fill-opacity="null" id="svg_13" d="m197.5,15.45c1,1.000001 4,1.000001 10,3.000001c3,1 5.132996,0.569504 9,2c2.097168,0.775795 3.310013,0.337492 6,2c1.203003,0.743496 2,1 4,1c0,0 2.823746,0.486258 5,1c0.973251,0.229753 0.585785,0.585787 2,2c0.707108,0.707108 1.486252,1.82375 2,4c0.229752,0.973249 0,5 0,10c0,2 0,3 0,9c0,4 0,6 0,8c0,2 0,2 0,4c0,1 0,2.999996 0,4.999996l0,1l0,0"/>
  <path fill="none" stroke-width="null" stroke-opacity="null" fill-opacity="null" id="svg_14" d="m1.787851,89.449997c-2.477003,0 4.770203,1.259109 17.339018,2.530612c2.464946,0.24937 7.431008,0 12.385013,2.530612c4.954005,2.530612 11.625652,6.222273 14.862015,7.591837c2.288447,0.968422 4.954005,2.530612 7.431008,5.061224c4.954005,5.061224 9.473119,10.370158 12.385013,15.183673c1.302235,2.152677 0.835973,5.845727 4.954005,12.653061c9.208207,15.22165 21.498777,25.723193 37.155039,40.489795c10.612359,10.00931 12.385013,10.122449 12.385013,10.122449c0,2.530612 3.592875,8.73184 9.90801,15.183673c6.315136,6.451833 4.954005,10.122449 4.954005,12.653061l2.477003,0l2.477003,0" stroke="null"/>
 </g>
</svg>