<svg width="716.0000000000001" height="144" xmlns="http://www.w3.org/2000/svg">
 <g>
  <title>background</title>
  <rect x="-1" y="-1" width="718" height="146" id="canvas_background" fill="none"/>
 </g>

 <g>
  <title>Layer 1</title>
  <path d="m43,123l636.408,0" stroke="#eff3f9" id="svg_1"/>
  <path d="m42.7242,127.309l0,-4.309" stroke="#979797" id="svg_2"/>
  <path d="m42.792,136.658c0.64,0.12 1.164,0.396 1.572,0.828c0.408,0.432 0.612,0.98 0.612,1.644c0,0.816 -0.28,1.46 -0.84,1.932c-0.56,0.472 -1.24,0.708 -2.04,0.708c-0.64,0 -1.208,-0.144 -1.704,-0.432c-0.496,-0.296 -0.848,-0.72 -1.056,-1.272l0.936,-0.552c0.248,0.776 0.856,1.164 1.824,1.164c0.52,0 0.944,-0.136 1.272,-0.408c0.328,-0.272 0.492,-0.652 0.492,-1.14c0,-0.488 -0.164,-0.868 -0.492,-1.14c-0.328,-0.28 -0.752,-0.42 -1.272,-0.42l-0.288,0l-0.444,-0.684l1.944,-2.628l-3.732,0l0,-1.044l5.04,0l0,0.984l-1.824,2.46zm4.8535,-3.444l0.96,0l0,8.4l-1.104,0l0,-7.2l-1.788,0.528l-0.276,-0.96l2.208,-0.768zm2.9814,9.6l-0.624,0l4.8,-10.8l0.624,0l-4.8,10.8zm11.4278,-2.232c-0.568,0.792 -1.364,1.188 -2.388,1.188c-1.024,0 -1.82,-0.396 -2.388,-1.188c-0.568,-0.792 -0.852,-1.848 -0.852,-3.168c0,-1.32 0.284,-2.376 0.852,-3.168c0.568,-0.792 1.364,-1.188 2.388,-1.188c1.024,0 1.82,0.396 2.388,1.188c0.568,0.792 0.852,1.848 0.852,3.168c0,1.32 -0.284,2.376 -0.852,3.168zm-3.96,-0.756c0.368,0.568 0.892,0.852 1.572,0.852c0.68,0 1.204,-0.284 1.572,-0.852c0.376,-0.568 0.564,-1.372 0.564,-2.412c0,-1.04 -0.188,-1.844 -0.564,-2.412c-0.368,-0.576 -0.892,-0.864 -1.572,-0.864c-0.68,0 -1.204,0.284 -1.572,0.852c-0.368,0.568 -0.552,1.376 -0.552,2.424c0,1.04 0.184,1.844 0.552,2.412zm7.4922,-6.612l0.96,0l0,8.4l-1.104,0l0,-7.2l-1.788,0.528l-0.276,-0.96l2.208,-0.768z" fill="#979797" id="svg_3"/>
  <path d="m139.808,140.582c-0.568,0.792 -1.364,1.188 -2.388,1.188c-1.024,0 -1.82,-0.396 -2.388,-1.188c-0.568,-0.792 -0.852,-1.848 -0.852,-3.168c0,-1.32 0.284,-2.376 0.852,-3.168c0.568,-0.792 1.364,-1.188 2.388,-1.188c1.024,0 1.82,0.396 2.388,1.188c0.568,0.792 0.852,1.848 0.852,3.168c0,1.32 -0.284,2.376 -0.852,3.168zm-3.96,-0.756c0.368,0.568 0.892,0.852 1.572,0.852c0.68,0 1.204,-0.284 1.572,-0.852c0.376,-0.568 0.564,-1.372 0.564,-2.412c0,-1.04 -0.188,-1.844 -0.564,-2.412c-0.368,-0.576 -0.892,-0.864 -1.572,-0.864c-0.68,0 -1.204,0.284 -1.572,0.852c-0.368,0.568 -0.552,1.376 -0.552,2.424c0,1.04 0.184,1.844 0.552,2.412zm7.492,-6.612l0.96,0l0,8.4l-1.104,0l0,-7.2l-1.788,0.528l-0.276,-0.96l2.208,-0.768zm2.982,9.6l-0.624,0l4.8,-10.8l0.624,0l-4.8,10.8zm11.428,-2.232c-0.568,0.792 -1.364,1.188 -2.388,1.188c-1.024,0 -1.82,-0.396 -2.388,-1.188c-0.568,-0.792 -0.852,-1.848 -0.852,-3.168c0,-1.32 0.284,-2.376 0.852,-3.168c0.568,-0.792 1.364,-1.188 2.388,-1.188c1.024,0 1.82,0.396 2.388,1.188c0.568,0.792 0.852,1.848 0.852,3.168c0,1.32 -0.284,2.376 -0.852,3.168zm-3.96,-0.756c0.368,0.568 0.892,0.852 1.572,0.852c0.68,0 1.204,-0.284 1.572,-0.852c0.376,-0.568 0.564,-1.372 0.564,-2.412c0,-1.04 -0.188,-1.844 -0.564,-2.412c-0.368,-0.576 -0.892,-0.864 -1.572,-0.864c-0.68,0 -1.204,0.284 -1.572,0.852c-0.368,0.568 -0.552,1.376 -0.552,2.424c0,1.04 0.184,1.844 0.552,2.412zm5.63,1.788l0,-0.912l2.964,-3.024c0.792,-0.792 1.188,-1.472 1.188,-2.04c0,-0.472 -0.144,-0.84 -0.432,-1.104c-0.288,-0.264 -0.64,-0.396 -1.056,-0.396c-0.792,0 -1.368,0.376 -1.728,1.128l-0.936,-0.552c0.264,-0.544 0.628,-0.956 1.092,-1.236c0.472,-0.28 0.992,-0.42 1.56,-0.42c0.704,0 1.316,0.232 1.836,0.696c0.52,0.464 0.78,1.088 0.78,1.872c0,0.848 -0.5,1.772 -1.5,2.772l-2.148,2.136l3.804,0l0,1.08l-5.424,0z" fill="#979797" id="svg_5"/>
  <path d="m230.724,141.582c-0.568,0.792 -1.364,1.188 -2.388,1.188c-1.024,0 -1.82,-0.396 -2.388,-1.188c-0.568,-0.792 -0.852,-1.848 -0.852,-3.168c0,-1.32 0.284,-2.376 0.852,-3.168c0.568,-0.792 1.364,-1.188 2.388,-1.188c1.024,0 1.82,0.396 2.388,1.188c0.568,0.792 0.852,1.848 0.852,3.168c0,1.32 -0.284,2.376 -0.852,3.168zm-3.96,-0.756c0.368,0.568 0.892,0.852 1.572,0.852c0.68,0 1.204,-0.284 1.572,-0.852c0.376,-0.568 0.564,-1.372 0.564,-2.412c0,-1.04 -0.188,-1.844 -0.564,-2.412c-0.368,-0.576 -0.892,-0.864 -1.572,-0.864c-0.68,0 -1.204,0.284 -1.572,0.852c-0.368,0.568 -0.552,1.376 -0.552,2.424c0,1.04 0.184,1.844 0.552,2.412zm5.63,1.788l0,-0.912l2.964,-3.024c0.792,-0.792 1.188,-1.472 1.188,-2.04c0,-0.472 -0.144,-0.84 -0.432,-1.104c-0.288,-0.264 -0.64,-0.396 -1.056,-0.396c-0.792,0 -1.368,0.376 -1.728,1.128l-0.936,-0.552c0.264,-0.544 0.628,-0.956 1.092,-1.236c0.472,-0.28 0.992,-0.42 1.56,-0.42c0.704,0 1.316,0.232 1.836,0.696c0.52,0.464 0.78,1.088 0.78,1.872c0,0.848 -0.5,1.772 -1.5,2.772l-2.148,2.136l3.804,0l0,1.08l-5.424,0zm6.976,1.2l-0.624,0l4.8,-10.8l0.624,0l-4.8,10.8zm11.428,-2.232c-0.568,0.792 -1.364,1.188 -2.388,1.188c-1.024,0 -1.82,-0.396 -2.388,-1.188c-0.568,-0.792 -0.852,-1.848 -0.852,-3.168c0,-1.32 0.284,-2.376 0.852,-3.168c0.568,-0.792 1.364,-1.188 2.388,-1.188c1.024,0 1.82,0.396 2.388,1.188c0.568,0.792 0.852,1.848 0.852,3.168c0,1.32 -0.284,2.376 -0.852,3.168zm-3.96,-0.756c0.368,0.568 0.892,0.852 1.572,0.852c0.68,0 1.204,-0.284 1.572,-0.852c0.376,-0.568 0.564,-1.372 0.564,-2.412c0,-1.04 -0.188,-1.844 -0.564,-2.412c-0.368,-0.576 -0.892,-0.864 -1.572,-0.864c-0.68,0 -1.204,0.284 -1.572,0.852c-0.368,0.568 -0.552,1.376 -0.552,2.424c0,1.04 0.184,1.844 0.552,2.412zm5.63,1.788l0,-0.912l2.964,-3.024c0.792,-0.792 1.188,-1.472 1.188,-2.04c0,-0.472 -0.144,-0.84 -0.432,-1.104c-0.288,-0.264 -0.64,-0.396 -1.056,-0.396c-0.792,0 -1.368,0.376 -1.728,1.128l-0.936,-0.552c0.264,-0.544 0.628,-0.956 1.092,-1.236c0.472,-0.28 0.992,-0.42 1.56,-0.42c0.704,0 1.316,0.232 1.836,0.696c0.52,0.464 0.78,1.088 0.78,1.872c0,0.848 -0.5,1.772 -1.5,2.772l-2.148,2.136l3.804,0l0,1.08l-5.424,0z" fill="#979797" id="svg_7"/>
  <path d="m321.639,140.582c-0.568,0.792 -1.364,1.188 -2.388,1.188c-1.024,0 -1.82,-0.396 -2.388,-1.188c-0.568,-0.792 -0.852,-1.848 -0.852,-3.168c0,-1.32 0.284,-2.376 0.852,-3.168c0.568,-0.792 1.364,-1.188 2.388,-1.188c1.024,0 1.82,0.396 2.388,1.188c0.568,0.792 0.852,1.848 0.852,3.168c0,1.32 -0.284,2.376 -0.852,3.168zm-3.96,-0.756c0.368,0.568 0.892,0.852 1.572,0.852c0.68,0 1.204,-0.284 1.572,-0.852c0.376,-0.568 0.564,-1.372 0.564,-2.412c0,-1.04 -0.188,-1.844 -0.564,-2.412c-0.368,-0.576 -0.892,-0.864 -1.572,-0.864c-0.68,0 -1.204,0.284 -1.572,0.852c-0.368,0.568 -0.552,1.376 -0.552,2.424c0,1.04 0.184,1.844 0.552,2.412zm8.862,-3.168c0.64,0.12 1.164,0.396 1.572,0.828c0.408,0.432 0.612,0.98 0.612,1.644c0,0.816 -0.28,1.46 -0.84,1.932c-0.56,0.472 -1.24,0.708 -2.04,0.708c-0.64,0 -1.208,-0.144 -1.704,-0.432c-0.496,-0.296 -0.848,-0.72 -1.056,-1.272l0.936,-0.552c0.248,0.776 0.856,1.164 1.824,1.164c0.52,0 0.944,-0.136 1.272,-0.408c0.328,-0.272 0.492,-0.652 0.492,-1.14c0,-0.488 -0.164,-0.868 -0.492,-1.14c-0.328,-0.28 -0.752,-0.42 -1.272,-0.42l-0.288,0l-0.444,-0.684l1.944,-2.628l-3.732,0l0,-1.044l5.04,0l0,0.984l-1.824,2.46zm3.709,6.156l-0.624,0l4.8,-10.8l0.624,0l-4.8,10.8zm11.428,-2.232c-0.568,0.792 -1.364,1.188 -2.388,1.188c-1.024,0 -1.82,-0.396 -2.388,-1.188c-0.568,-0.792 -0.852,-1.848 -0.852,-3.168c0,-1.32 0.284,-2.376 0.852,-3.168c0.568,-0.792 1.364,-1.188 2.388,-1.188c1.024,0 1.82,0.396 2.388,1.188c0.568,0.792 0.852,1.848 0.852,3.168c0,1.32 -0.284,2.376 -0.852,3.168zm-3.96,-0.756c0.368,0.568 0.892,0.852 1.572,0.852c0.68,0 1.204,-0.284 1.572,-0.852c0.376,-0.568 0.564,-1.372 0.564,-2.412c0,-1.04 -0.188,-1.844 -0.564,-2.412c-0.368,-0.576 -0.892,-0.864 -1.572,-0.864c-0.68,0 -1.204,0.284 -1.572,0.852c-0.368,0.568 -0.552,1.376 -0.552,2.424c0,1.04 0.184,1.844 0.552,2.412zm5.631,1.788l0,-0.912l2.964,-3.024c0.792,-0.792 1.188,-1.472 1.188,-2.04c0,-0.472 -0.144,-0.84 -0.432,-1.104c-0.288,-0.264 -0.64,-0.396 -1.056,-0.396c-0.792,0 -1.368,0.376 -1.728,1.128l-0.936,-0.552c0.264,-0.544 0.628,-0.956 1.092,-1.236c0.472,-0.28 0.992,-0.42 1.56,-0.42c0.704,0 1.316,0.232 1.836,0.696c0.52,0.464 0.78,1.088 0.78,1.872c0,0.848 -0.5,1.772 -1.5,2.772l-2.148,2.136l3.804,0l0,1.08l-5.424,0z" fill="#979797" id="svg_9"/>
  <path d="m408.989,136.658c0.64,0.12 1.164,0.396 1.572,0.828c0.408,0.432 0.612,0.98 0.612,1.644c0,0.816 -0.28,1.46 -0.84,1.932c-0.56,0.472 -1.24,0.708 -2.04,0.708c-0.64,0 -1.208,-0.144 -1.704,-0.432c-0.496,-0.296 -0.848,-0.72 -1.056,-1.272l0.936,-0.552c0.248,0.776 0.856,1.164 1.824,1.164c0.52,0 0.944,-0.136 1.272,-0.408c0.328,-0.272 0.492,-0.652 0.492,-1.14c0,-0.488 -0.164,-0.868 -0.492,-1.14c-0.328,-0.28 -0.752,-0.42 -1.272,-0.42l-0.288,0l-0.444,-0.684l1.944,-2.628l-3.732,0l0,-1.044l5.04,0l0,0.984l-1.824,2.46zm4.853,-3.444l0.96,0l0,8.4l-1.104,0l0,-7.2l-1.788,0.528l-0.276,-0.96l2.208,-0.768zm2.982,9.6l-0.624,0l4.8,-10.8l0.624,0l-4.8,10.8zm11.427,-2.232c-0.568,0.792 -1.364,1.188 -2.388,1.188c-1.024,0 -1.82,-0.396 -2.388,-1.188c-0.568,-0.792 -0.852,-1.848 -0.852,-3.168c0,-1.32 0.284,-2.376 0.852,-3.168c0.568,-0.792 1.364,-1.188 2.388,-1.188c1.024,0 1.82,0.396 2.388,1.188c0.568,0.792 0.852,1.848 0.852,3.168c0,1.32 -0.284,2.376 -0.852,3.168zm-3.96,-0.756c0.368,0.568 0.892,0.852 1.572,0.852c0.68,0 1.204,-0.284 1.572,-0.852c0.376,-0.568 0.564,-1.372 0.564,-2.412c0,-1.04 -0.188,-1.844 -0.564,-2.412c-0.368,-0.576 -0.892,-0.864 -1.572,-0.864c-0.68,0 -1.204,0.284 -1.572,0.852c-0.368,0.568 -0.552,1.376 -0.552,2.424c0,1.04 0.184,1.844 0.552,2.412zm7.493,-6.612l0.96,0l0,8.4l-1.104,0l0,-7.2l-1.788,0.528l-0.276,-0.96l2.208,-0.768z" fill="#979797" id="svg_11"/>
  <path d="m502.28,140.582c-0.568,0.792 -1.364,1.188 -2.388,1.188c-1.024,0 -1.82,-0.396 -2.388,-1.188c-0.568,-0.792 -0.852,-1.848 -0.852,-3.168c0,-1.32 0.284,-2.376 0.852,-3.168c0.568,-0.792 1.364,-1.188 2.388,-1.188c1.024,0 1.82,0.396 2.388,1.188c0.568,0.792 0.852,1.848 0.852,3.168c0,1.32 -0.284,2.376 -0.852,3.168zm-3.96,-0.756c0.368,0.568 0.892,0.852 1.572,0.852c0.68,0 1.204,-0.284 1.572,-0.852c0.376,-0.568 0.564,-1.372 0.564,-2.412c0,-1.04 -0.188,-1.844 -0.564,-2.412c-0.368,-0.576 -0.892,-0.864 -1.572,-0.864c-0.68,0 -1.204,0.284 -1.572,0.852c-0.368,0.568 -0.552,1.376 -0.552,2.424c0,1.04 0.184,1.844 0.552,2.412zm12.059,-0.852l0,1.044l-1.02,0l0,1.596l-1.116,0l0,-1.596l-4.284,0l0,-1.044l3.012,-5.76l1.2,0l-3.012,5.76l3.084,0l0,-2.376l1.116,0l0,2.376l1.02,0zm1.333,3.84l-0.624,0l4.8,-10.8l0.624,0l-4.8,10.8zm11.427,-2.232c-0.568,0.792 -1.364,1.188 -2.388,1.188c-1.024,0 -1.82,-0.396 -2.388,-1.188c-0.568,-0.792 -0.852,-1.848 -0.852,-3.168c0,-1.32 0.284,-2.376 0.852,-3.168c0.568,-0.792 1.364,-1.188 2.388,-1.188c1.024,0 1.82,0.396 2.388,1.188c0.568,0.792 0.852,1.848 0.852,3.168c0,1.32 -0.284,2.376 -0.852,3.168zm-3.96,-0.756c0.368,0.568 0.892,0.852 1.572,0.852c0.68,0 1.204,-0.284 1.572,-0.852c0.376,-0.568 0.564,-1.372 0.564,-2.412c0,-1.04 -0.188,-1.844 -0.564,-2.412c-0.368,-0.576 -0.892,-0.864 -1.572,-0.864c-0.68,0 -1.204,0.284 -1.572,0.852c-0.368,0.568 -0.552,1.376 -0.552,2.424c0,1.04 0.184,1.844 0.552,2.412zm5.631,1.788l0,-0.912l2.964,-3.024c0.792,-0.792 1.188,-1.472 1.188,-2.04c0,-0.472 -0.144,-0.84 -0.432,-1.104c-0.288,-0.264 -0.64,-0.396 -1.056,-0.396c-0.792,0 -1.368,0.376 -1.728,1.128l-0.936,-0.552c0.264,-0.544 0.628,-0.956 1.092,-1.236c0.472,-0.28 0.992,-0.42 1.56,-0.42c0.704,0 1.316,0.232 1.836,0.696c0.52,0.464 0.78,1.088 0.78,1.872c0,0.848 -0.5,1.772 -1.5,2.772l-2.148,2.136l3.804,0l0,1.08l-5.424,0z" fill="#979797" id="svg_13"/>
  <path d="m594.53,140.582c-0.568,0.792 -1.364,1.188 -2.388,1.188c-1.024,0 -1.82,-0.396 -2.388,-1.188c-0.568,-0.792 -0.852,-1.848 -0.852,-3.168c0,-1.32 0.284,-2.376 0.852,-3.168c0.568,-0.792 1.364,-1.188 2.388,-1.188c1.024,0 1.82,0.396 2.388,1.188c0.568,0.792 0.852,1.848 0.852,3.168c0,1.32 -0.284,2.376 -0.852,3.168zm-3.96,-0.756c0.368,0.568 0.892,0.852 1.572,0.852c0.68,0 1.204,-0.284 1.572,-0.852c0.376,-0.568 0.564,-1.372 0.564,-2.412c0,-1.04 -0.188,-1.844 -0.564,-2.412c-0.368,-0.576 -0.892,-0.864 -1.572,-0.864c-0.68,0 -1.204,0.284 -1.572,0.852c-0.368,0.568 -0.552,1.376 -0.552,2.424c0,1.04 0.184,1.844 0.552,2.412zm8.555,-3.336c0.792,0 1.46,0.236 2.004,0.708c0.552,0.464 0.828,1.108 0.828,1.932c0,0.816 -0.28,1.46 -0.84,1.932c-0.56,0.472 -1.24,0.708 -2.04,0.708c-0.64,0 -1.212,-0.152 -1.716,-0.456c-0.504,-0.312 -0.856,-0.76 -1.056,-1.344l0.948,-0.54c0.112,0.408 0.328,0.72 0.648,0.936c0.32,0.208 0.712,0.312 1.176,0.312c0.528,0 0.956,-0.136 1.284,-0.408c0.328,-0.272 0.492,-0.652 0.492,-1.14c0,-0.488 -0.164,-0.868 -0.492,-1.14c-0.328,-0.28 -0.748,-0.42 -1.26,-0.42l-2.376,0l0.312,-4.356l4.596,0l0,1.044l-3.588,0l-0.144,2.232l1.224,0zm4.356,6.324l-0.624,0l4.8,-10.8l0.624,0l-4.8,10.8zm11.428,-2.232c-0.568,0.792 -1.364,1.188 -2.388,1.188c-1.024,0 -1.82,-0.396 -2.388,-1.188c-0.568,-0.792 -0.852,-1.848 -0.852,-3.168c0,-1.32 0.284,-2.376 0.852,-3.168c0.568,-0.792 1.364,-1.188 2.388,-1.188c1.024,0 1.82,0.396 2.388,1.188c0.568,0.792 0.852,1.848 0.852,3.168c0,1.32 -0.284,2.376 -0.852,3.168zm-3.96,-0.756c0.368,0.568 0.892,0.852 1.572,0.852c0.68,0 1.204,-0.284 1.572,-0.852c0.376,-0.568 0.564,-1.372 0.564,-2.412c0,-1.04 -0.188,-1.844 -0.564,-2.412c-0.368,-0.576 -0.892,-0.864 -1.572,-0.864c-0.68,0 -1.204,0.284 -1.572,0.852c-0.368,0.568 -0.552,1.376 -0.552,2.424c0,1.04 0.184,1.844 0.552,2.412zm5.63,1.788l0,-0.912l2.964,-3.024c0.792,-0.792 1.188,-1.472 1.188,-2.04c0,-0.472 -0.144,-0.84 -0.432,-1.104c-0.288,-0.264 -0.64,-0.396 -1.056,-0.396c-0.792,0 -1.368,0.376 -1.728,1.128l-0.936,-0.552c0.264,-0.544 0.628,-0.956 1.092,-1.236c0.472,-0.28 0.992,-0.42 1.56,-0.42c0.704,0 1.316,0.232 1.836,0.696c0.52,0.464 0.78,1.088 0.78,1.872c0,0.848 -0.5,1.772 -1.5,2.772l-2.148,2.136l3.804,0l0,1.08l-5.424,0z" fill="#979797" id="svg_15"/>
  <path d="m684.255,140.913c-0.568,0.792 -1.364,1.188 -2.388,1.188c-1.024,0 -1.82,-0.396 -2.388,-1.188c-0.568,-0.792 -0.852,-1.848 -0.852,-3.168c0,-1.32 0.284,-2.376 0.852,-3.168c0.568,-0.792 1.364,-1.188 2.388,-1.188c1.024,0 1.82,0.396 2.388,1.188c0.568,0.792 0.852,1.848 0.852,3.168c0,1.32 -0.284,2.376 -0.852,3.168zm-3.96,-0.756c0.368,0.568 0.892,0.852 1.572,0.852c0.68,0 1.204,-0.284 1.572,-0.852c0.376,-0.568 0.564,-1.372 0.564,-2.412c0,-1.04 -0.188,-1.844 -0.564,-2.412c-0.368,-0.576 -0.892,-0.864 -1.572,-0.864c-0.68,0 -1.204,0.284 -1.572,0.852c-0.368,0.568 -0.552,1.376 -0.552,2.424c0,1.04 0.184,1.844 0.552,2.412zm8.579,-3.708c0.84,0 1.532,0.264 2.076,0.792c0.544,0.52 0.816,1.196 0.816,2.028c0,0.832 -0.272,1.512 -0.816,2.04c-0.544,0.528 -1.236,0.792 -2.076,0.792c-0.848,0 -1.544,-0.264 -2.088,-0.792c-0.536,-0.528 -0.804,-1.208 -0.804,-2.04c0,-0.648 0.168,-1.208 0.504,-1.68l2.7,-4.044l1.272,0l-1.98,2.928c0.176,-0.016 0.308,-0.024 0.396,-0.024zm-1.296,4.104c0.336,0.32 0.768,0.48 1.296,0.48c0.528,0 0.956,-0.16 1.284,-0.48c0.336,-0.328 0.504,-0.756 0.504,-1.284c0,-0.528 -0.168,-0.952 -0.504,-1.272c-0.328,-0.32 -0.756,-0.48 -1.284,-0.48c-0.536,0 -0.968,0.16 -1.296,0.48c-0.328,0.32 -0.492,0.744 -0.492,1.272c0,0.528 0.164,0.956 0.492,1.284zm5.605,2.592l-0.624,0l4.8,-10.8l0.624,0l-4.8,10.8zm11.428,-2.232c-0.568,0.792 -1.364,1.188 -2.388,1.188c-1.024,0 -1.82,-0.396 -2.388,-1.188c-0.568,-0.792 -0.852,-1.848 -0.852,-3.168c0,-1.32 0.284,-2.376 0.852,-3.168c0.568,-0.792 1.364,-1.188 2.388,-1.188c1.024,0 1.82,0.396 2.388,1.188c0.568,0.792 0.852,1.848 0.852,3.168c0,1.32 -0.284,2.376 -0.852,3.168zm-3.96,-0.756c0.368,0.568 0.892,0.852 1.572,0.852c0.68,0 1.204,-0.284 1.572,-0.852c0.376,-0.568 0.564,-1.372 0.564,-2.412c0,-1.04 -0.188,-1.844 -0.564,-2.412c-0.368,-0.576 -0.892,-0.864 -1.572,-0.864c-0.68,0 -1.204,0.284 -1.572,0.852c-0.368,0.568 -0.552,1.376 -0.552,2.424c0,1.04 0.184,1.844 0.552,2.412zm5.63,1.788l0,-0.912l2.964,-3.024c0.792,-0.792 1.188,-1.472 1.188,-2.04c0,-0.472 -0.144,-0.84 -0.432,-1.104c-0.288,-0.264 -0.64,-0.396 -1.056,-0.396c-0.792,0 -1.368,0.376 -1.728,1.128l-0.936,-0.552c0.264,-0.544 0.628,-0.956 1.092,-1.236c0.472,-0.28 0.992,-0.42 1.56,-0.42c0.704,0 1.316,0.232 1.836,0.696c0.52,0.464 0.78,1.088 0.78,1.872c0,0.848 -0.5,1.772 -1.5,2.772l-2.148,2.136l3.804,0l0,1.08l-5.424,0z" fill="#979797" id="svg_17"/>
  <path d="m133.64,127.309l0,-4.309" stroke="#979797" id="svg_19"/>
  <path d="m224.556,127.309l0,-4.309" stroke="#979797" id="svg_20"/>
  <path d="m315.471,127.309l0,-4.309" stroke="#979797" id="svg_21"/>
  <path d="m406.387,127.309l0,-4.309" stroke="#979797" id="svg_22"/>
  <path d="m497.302,127.309l0,-4.309" stroke="#979797" id="svg_23"/>
  <path d="m588.218,127.309l0,-4.309" stroke="#979797" id="svg_24"/>
  <path d="m679.133,127.309l0,-4.309" stroke="#979797" id="svg_25"/>
  <path d="m37,123l6.3985,0" stroke="#979797" id="svg_26"/>
  <path d="m27.0751,125.968c-0.568,0.792 -1.364,1.188 -2.388,1.188c-1.024,0 -1.82,-0.396 -2.388,-1.188c-0.568,-0.792 -0.852,-1.848 -0.852,-3.168c0,-1.32 0.284,-2.376 0.852,-3.168c0.568,-0.792 1.364,-1.188 2.388,-1.188c1.024,0 1.82,0.396 2.388,1.188c0.568,0.792 0.852,1.848 0.852,3.168c0,1.32 -0.284,2.376 -0.852,3.168zm-3.96,-0.756c0.368,0.568 0.892,0.852 1.572,0.852c0.68,0 1.204,-0.284 1.572,-0.852c0.376,-0.568 0.564,-1.372 0.564,-2.412c0,-1.04 -0.188,-1.844 -0.564,-2.412c-0.368,-0.576 -0.892,-0.864 -1.572,-0.864c-0.68,0 -1.204,0.284 -1.572,0.852c-0.368,0.568 -0.552,1.376 -0.552,2.424c0,1.04 0.184,1.844 0.552,2.412z" fill="#979797" id="svg_27"/>
  <path d="m36.6501,63.765l6.3498,0" stroke="#979797" id="svg_29"/>
  <path d="m17.1245,59.2049l0.96,0l0,8.4l-1.104,0l0,-7.2l-1.788,0.528l-0.276,-0.96l2.208,-0.768zm4.2534,7.164l-0.78,2.916l-0.9,0l0.48,-2.916l1.2,0zm3.9231,-3.888c0.792,0 1.46,0.236 2.004,0.708c0.552,0.464 0.828,1.108 0.828,1.932c0,0.816 -0.28,1.46 -0.84,1.932c-0.56,0.472 -1.24,0.708 -2.04,0.708c-0.64,0 -1.212,-0.152 -1.716,-0.456c-0.504,-0.312 -0.856,-0.76 -1.056,-1.344l0.948,-0.54c0.112,0.408 0.328,0.72 0.648,0.936c0.32,0.208 0.712,0.312 1.176,0.312c0.528,0 0.956,-0.136 1.284,-0.408c0.328,-0.272 0.492,-0.652 0.492,-1.14c0,-0.488 -0.164,-0.868 -0.492,-1.14c-0.328,-0.28 -0.748,-0.42 -1.26,-0.42l-2.376,0l0.312,-4.356l4.596,0l0,1.044l-3.588,0l-0.144,2.232l1.224,0z" fill="#979797" id="svg_30"/>
  <path d="m36.6503,5.15989l6.3497,0" stroke="#979797" id="svg_32"/>
  <path d="m25.9468,4.044c0.64,0.12 1.164,0.396 1.572,0.828c0.408,0.432 0.612,0.98 0.612,1.644c0,0.816 -0.28,1.46 -0.84,1.932c-0.56,0.472 -1.24,0.708 -2.04,0.708c-0.64,0 -1.208,-0.144 -1.704,-0.432c-0.496,-0.296 -0.848,-0.72 -1.056,-1.272l0.936,-0.552c0.248,0.776 0.856,1.164 1.824,1.164c0.52,0 0.944,-0.136 1.272,-0.408c0.328,-0.272 0.492,-0.652 0.492,-1.14c0,-0.488 -0.164,-0.868 -0.492,-1.14c-0.328,-0.28 -0.752,-0.42 -1.272,-0.42l-0.288,0l-0.444,-0.684l1.944,-2.628l-3.732,0l0,-1.044l5.04,0l0,0.984l-1.824,2.46z" fill="#979797" id="svg_33"/>
  <path d="m43,93.5002l636,0" stroke="#EFF3F9" id="svg_36"/>
  <path d="m43,64l636,0" stroke="#EFF3F9" id="svg_37"/>
  <path d="m43,34.5002l636,0" stroke="#EFF3F9" id="svg_38"/>
  <path d="m43,5l636,0" stroke="#EFF3F9" id="svg_39"/>
  <path d="m43,5.00008l0,117.99992" stroke="#EFF3F9" id="svg_40"/>
  <path d="m133.857,5l0,118" stroke="#EFF3F9" id="svg_41"/>
  <path d="m224.714,5l0,118" stroke="#EFF3F9" id="svg_42"/>
  <path d="m315.571,5l0,118" stroke="#eff3f9" id="svg_43"/>
  <path d="m406.428,5l0,118" stroke="#EFF3F9" id="svg_44"/>
  <path d="m497.285,5l0,118" stroke="#EFF3F9" id="svg_45"/>
  <path d="m588.142,5l0,118" stroke="#EFF3F9" id="svg_46"/>
  <path d="m42,101.719c26.9333,-52.3377 62.936,-68.9221 90.857,-45.0306c23.906,20.4552 56.826,65.5116 90.857,45.1476c34.032,-20.363 42.031,-95.83584 90.857,-95.836c48.827,-0.00016 70.378,61.6753 90.858,86.406c20.479,24.731 57.22,-3.8206 91.175,-29.0563c33.954,-25.2358 52.165,-41.1027 90.539,-48.8623c38.374,-7.75972 90.857,71.7888 90.857,71.7888" stroke="#7F7FD5" stroke-width="1.8" id="svg_47" fill="none"/>
  <path d="m43,5l0,117.305" stroke="#EFF3F9" id="svg_48"/>
  <path d="m678.894,4.69476l0,117.30524" stroke="#EFF3F9" id="svg_49"/>
  <path d="m133.424,58.2046c1.323,0 2.395,-1.0789 2.395,-2.4097c0,-1.3309 -1.072,-2.4097 -2.395,-2.4097c-1.322,0 -2.394,1.0788 -2.394,2.4097c0,1.3308 1.072,2.4097 2.394,2.4097z" fill="#E786D7" id="svg_50"/>
  <path d="m42.3942,103.008c1.3223,0 2.3942,-1.079 2.3942,-2.41c0,-1.3304 -1.0719,-2.4093 -2.3942,-2.4093c-1.3223,0 -2.3942,1.0789 -2.3942,2.4093c0,1.331 1.0719,2.41 2.3942,2.41z" fill="#E786D7" id="svg_51"/>
  <path d="m224.455,104.004c1.322,0 2.394,-1.079 2.394,-2.41c0,-1.331 -1.072,-2.4095 -2.394,-2.4095c-1.323,0 -2.394,1.0785 -2.394,2.4095c0,1.331 1.071,2.41 2.394,2.41z" fill="#E786D7" id="svg_52"/>
  <path d="m315.259,7.81936c1.322,0 2.394,-1.07885 2.394,-2.40968c0,-1.33083 -1.072,-2.40968 -2.394,-2.40968c-1.322,0 -2.394,1.07885 -2.394,2.40968c0,1.33083 1.072,2.40968 2.394,2.40968z" fill="#E786D7" id="svg_53"/>
  <path d="m406.058,94.0877c1.322,0 2.394,-1.0788 2.394,-2.4096c0,-1.3309 -1.072,-2.4097 -2.394,-2.4097c-1.322,0 -2.394,1.0788 -2.394,2.4097c0,1.3308 1.072,2.4096 2.394,2.4096z" fill="#E786D7" id="svg_54"/>
  <path d="m496.545,66.1696c1.323,0 2.394,-1.0789 2.394,-2.4097c0,-1.3308 -1.071,-2.4097 -2.394,-2.4097c-1.322,0 -2.394,1.0789 -2.394,2.4097c0,1.3308 1.072,2.4097 2.394,2.4097z" fill="#E786D7" id="svg_55"/>
  <path d="m588.576,16.3877c1.322,0 2.394,-1.0788 2.394,-2.4096c0,-1.3309 -1.072,-2.4097 -2.394,-2.4097c-1.323,0 -2.394,1.0788 -2.394,2.4097c0,1.3308 1.071,2.4096 2.394,2.4096z" fill="#E786D7" id="svg_56"/>
  <path d="m678.606,88.0736c1.322,0 2.394,-1.0789 2.394,-2.4097c0,-1.3308 -1.072,-2.4097 -2.394,-2.4097c-1.322,0 -2.394,1.0789 -2.394,2.4097c0,1.3308 1.072,2.4097 2.394,2.4097z" fill="#E786D7" id="svg_57"/>
 </g>
</svg>