<svg width="716" height="144" xmlns="http://www.w3.org/2000/svg">

 <g>
  <title>background</title>
  <rect fill="none" id="canvas_background" height="146" width="718" y="-1" x="-1"/>
 </g>
 <g>
  <title>Layer 1</title>
  <path id="svg_1" stroke="#CACACA" d="m43,123l636.408,0"/>
  <path id="svg_2" stroke="#979797" d="m42.7243,127.309l0,-4.309"/>
  <path id="svg_3" fill="#4d4d4d" d="m42.792,136.658c0.64,0.12 1.164,0.396 1.572,0.828c0.408,0.432 0.612,0.98 0.612,1.644c0,0.816 -0.28,1.46 -0.84,1.932c-0.56,0.472 -1.24,0.708 -2.04,0.708c-0.64,0 -1.208,-0.144 -1.704,-0.432c-0.496,-0.296 -0.848,-0.72 -1.056,-1.272l0.936,-0.552c0.248,0.776 0.856,1.164 1.824,1.164c0.52,0 0.944,-0.136 1.272,-0.408c0.328,-0.272 0.492,-0.652 0.492,-1.14c0,-0.488 -0.164,-0.868 -0.492,-1.14c-0.328,-0.28 -0.752,-0.42 -1.272,-0.42l-0.288,0l-0.444,-0.684l1.944,-2.628l-3.732,0l0,-1.044l5.04,0l0,0.984l-1.824,2.46zm4.8535,-3.444l0.96,0l0,8.4l-1.104,0l0,-7.2l-1.788,0.528l-0.276,-0.96l2.208,-0.768zm2.9814,9.6l-0.624,0l4.8,-10.8l0.624,0l-4.8,10.8zm11.4278,-2.232c-0.568,0.792 -1.364,1.188 -2.388,1.188c-1.024,0 -1.82,-0.396 -2.388,-1.188c-0.568,-0.792 -0.852,-1.848 -0.852,-3.168c0,-1.32 0.284,-2.376 0.852,-3.168c0.568,-0.792 1.364,-1.188 2.388,-1.188c1.024,0 1.82,0.396 2.388,1.188c0.568,0.792 0.852,1.848 0.852,3.168c0,1.32 -0.284,2.376 -0.852,3.168zm-3.96,-0.756c0.368,0.568 0.892,0.852 1.572,0.852c0.68,0 1.204,-0.284 1.572,-0.852c0.376,-0.568 0.564,-1.372 0.564,-2.412c0,-1.04 -0.188,-1.844 -0.564,-2.412c-0.368,-0.576 -0.892,-0.864 -1.572,-0.864c-0.68,0 -1.204,0.284 -1.572,0.852c-0.368,0.568 -0.552,1.376 -0.552,2.424c0,1.04 0.184,1.844 0.552,2.412zm7.4922,-6.612l0.96,0l0,8.4l-1.104,0l0,-7.2l-1.788,0.528l-0.276,-0.96l2.208,-0.768z"/>
  <path id="svg_5" fill="#4d4d4d" d="m139.808,140.582c-0.568,0.792 -1.364,1.188 -2.388,1.188c-1.024,0 -1.82,-0.396 -2.388,-1.188c-0.568,-0.792 -0.852,-1.848 -0.852,-3.168c0,-1.32 0.284,-2.376 0.852,-3.168c0.568,-0.792 1.364,-1.188 2.388,-1.188c1.024,0 1.82,0.396 2.388,1.188c0.568,0.792 0.852,1.848 0.852,3.168c0,1.32 -0.284,2.376 -0.852,3.168zm-3.96,-0.756c0.368,0.568 0.892,0.852 1.572,0.852c0.68,0 1.204,-0.284 1.572,-0.852c0.376,-0.568 0.564,-1.372 0.564,-2.412c0,-1.04 -0.188,-1.844 -0.564,-2.412c-0.368,-0.576 -0.892,-0.864 -1.572,-0.864c-0.68,0 -1.204,0.284 -1.572,0.852c-0.368,0.568 -0.552,1.376 -0.552,2.424c0,1.04 0.184,1.844 0.552,2.412zm7.492,-6.612l0.96,0l0,8.4l-1.104,0l0,-7.2l-1.788,0.528l-0.276,-0.96l2.208,-0.768zm2.982,9.6l-0.624,0l4.8,-10.8l0.624,0l-4.8,10.8zm11.428,-2.232c-0.568,0.792 -1.364,1.188 -2.388,1.188c-1.024,0 -1.82,-0.396 -2.388,-1.188c-0.568,-0.792 -0.852,-1.848 -0.852,-3.168c0,-1.32 0.284,-2.376 0.852,-3.168c0.568,-0.792 1.364,-1.188 2.388,-1.188c1.024,0 1.82,0.396 2.388,1.188c0.568,0.792 0.852,1.848 0.852,3.168c0,1.32 -0.284,2.376 -0.852,3.168zm-3.96,-0.756c0.368,0.568 0.892,0.852 1.572,0.852c0.68,0 1.204,-0.284 1.572,-0.852c0.376,-0.568 0.564,-1.372 0.564,-2.412c0,-1.04 -0.188,-1.844 -0.564,-2.412c-0.368,-0.576 -0.892,-0.864 -1.572,-0.864c-0.68,0 -1.204,0.284 -1.572,0.852c-0.368,0.568 -0.552,1.376 -0.552,2.424c0,1.04 0.184,1.844 0.552,2.412zm5.63,1.788l0,-0.912l2.964,-3.024c0.792,-0.792 1.188,-1.472 1.188,-2.04c0,-0.472 -0.144,-0.84 -0.432,-1.104c-0.288,-0.264 -0.64,-0.396 -1.056,-0.396c-0.792,0 -1.368,0.376 -1.728,1.128l-0.936,-0.552c0.264,-0.544 0.628,-0.956 1.092,-1.236c0.472,-0.28 0.992,-0.42 1.56,-0.42c0.704,0 1.316,0.232 1.836,0.696c0.52,0.464 0.78,1.088 0.78,1.872c0,0.848 -0.5,1.772 -1.5,2.772l-2.148,2.136l3.804,0l0,1.08l-5.424,0z"/>
  <path id="svg_7" fill="#4d4d4d" d="m230.724,140.582c-0.568,0.792 -1.364,1.188 -2.388,1.188c-1.024,0 -1.82,-0.396 -2.388,-1.188c-0.568,-0.792 -0.852,-1.848 -0.852,-3.168c0,-1.32 0.284,-2.376 0.852,-3.168c0.568,-0.792 1.364,-1.188 2.388,-1.188c1.024,0 1.82,0.396 2.388,1.188c0.568,0.792 0.852,1.848 0.852,3.168c0,1.32 -0.284,2.376 -0.852,3.168zm-3.96,-0.756c0.368,0.568 0.892,0.852 1.572,0.852c0.68,0 1.204,-0.284 1.572,-0.852c0.376,-0.568 0.564,-1.372 0.564,-2.412c0,-1.04 -0.188,-1.844 -0.564,-2.412c-0.368,-0.576 -0.892,-0.864 -1.572,-0.864c-0.68,0 -1.204,0.284 -1.572,0.852c-0.368,0.568 -0.552,1.376 -0.552,2.424c0,1.04 0.184,1.844 0.552,2.412zm5.63,1.788l0,-0.912l2.964,-3.024c0.792,-0.792 1.188,-1.472 1.188,-2.04c0,-0.472 -0.144,-0.84 -0.432,-1.104c-0.288,-0.264 -0.64,-0.396 -1.056,-0.396c-0.792,0 -1.368,0.376 -1.728,1.128l-0.936,-0.552c0.264,-0.544 0.628,-0.956 1.092,-1.236c0.472,-0.28 0.992,-0.42 1.56,-0.42c0.704,0 1.316,0.232 1.836,0.696c0.52,0.464 0.78,1.088 0.78,1.872c0,0.848 -0.5,1.772 -1.5,2.772l-2.148,2.136l3.804,0l0,1.08l-5.424,0zm6.976,1.2l-0.624,0l4.8,-10.8l0.624,0l-4.8,10.8zm11.428,-2.232c-0.568,0.792 -1.364,1.188 -2.388,1.188c-1.024,0 -1.82,-0.396 -2.388,-1.188c-0.568,-0.792 -0.852,-1.848 -0.852,-3.168c0,-1.32 0.284,-2.376 0.852,-3.168c0.568,-0.792 1.364,-1.188 2.388,-1.188c1.024,0 1.82,0.396 2.388,1.188c0.568,0.792 0.852,1.848 0.852,3.168c0,1.32 -0.284,2.376 -0.852,3.168zm-3.96,-0.756c0.368,0.568 0.892,0.852 1.572,0.852c0.68,0 1.204,-0.284 1.572,-0.852c0.376,-0.568 0.564,-1.372 0.564,-2.412c0,-1.04 -0.188,-1.844 -0.564,-2.412c-0.368,-0.576 -0.892,-0.864 -1.572,-0.864c-0.68,0 -1.204,0.284 -1.572,0.852c-0.368,0.568 -0.552,1.376 -0.552,2.424c0,1.04 0.184,1.844 0.552,2.412zm5.63,1.788l0,-0.912l2.964,-3.024c0.792,-0.792 1.188,-1.472 1.188,-2.04c0,-0.472 -0.144,-0.84 -0.432,-1.104c-0.288,-0.264 -0.64,-0.396 -1.056,-0.396c-0.792,0 -1.368,0.376 -1.728,1.128l-0.936,-0.552c0.264,-0.544 0.628,-0.956 1.092,-1.236c0.472,-0.28 0.992,-0.42 1.56,-0.42c0.704,0 1.316,0.232 1.836,0.696c0.52,0.464 0.78,1.088 0.78,1.872c0,0.848 -0.5,1.772 -1.5,2.772l-2.148,2.136l3.804,0l0,1.08l-5.424,0z"/>
  <path id="svg_9" fill="#4d4d4d" d="m321.639,140.582c-0.568,0.792 -1.364,1.188 -2.388,1.188c-1.024,0 -1.82,-0.396 -2.388,-1.188c-0.568,-0.792 -0.852,-1.848 -0.852,-3.168c0,-1.32 0.284,-2.376 0.852,-3.168c0.568,-0.792 1.364,-1.188 2.388,-1.188c1.024,0 1.82,0.396 2.388,1.188c0.568,0.792 0.852,1.848 0.852,3.168c0,1.32 -0.284,2.376 -0.852,3.168zm-3.96,-0.756c0.368,0.568 0.892,0.852 1.572,0.852c0.68,0 1.204,-0.284 1.572,-0.852c0.376,-0.568 0.564,-1.372 0.564,-2.412c0,-1.04 -0.188,-1.844 -0.564,-2.412c-0.368,-0.576 -0.892,-0.864 -1.572,-0.864c-0.68,0 -1.204,0.284 -1.572,0.852c-0.368,0.568 -0.552,1.376 -0.552,2.424c0,1.04 0.184,1.844 0.552,2.412zm8.862,-3.168c0.64,0.12 1.164,0.396 1.572,0.828c0.408,0.432 0.612,0.98 0.612,1.644c0,0.816 -0.28,1.46 -0.84,1.932c-0.56,0.472 -1.24,0.708 -2.04,0.708c-0.64,0 -1.208,-0.144 -1.704,-0.432c-0.496,-0.296 -0.848,-0.72 -1.056,-1.272l0.936,-0.552c0.248,0.776 0.856,1.164 1.824,1.164c0.52,0 0.944,-0.136 1.272,-0.408c0.328,-0.272 0.492,-0.652 0.492,-1.14c0,-0.488 -0.164,-0.868 -0.492,-1.14c-0.328,-0.28 -0.752,-0.42 -1.272,-0.42l-0.288,0l-0.444,-0.684l1.944,-2.628l-3.732,0l0,-1.044l5.04,0l0,0.984l-1.824,2.46zm3.709,6.156l-0.624,0l4.8,-10.8l0.624,0l-4.8,10.8zm11.428,-2.232c-0.568,0.792 -1.364,1.188 -2.388,1.188c-1.024,0 -1.82,-0.396 -2.388,-1.188c-0.568,-0.792 -0.852,-1.848 -0.852,-3.168c0,-1.32 0.284,-2.376 0.852,-3.168c0.568,-0.792 1.364,-1.188 2.388,-1.188c1.024,0 1.82,0.396 2.388,1.188c0.568,0.792 0.852,1.848 0.852,3.168c0,1.32 -0.284,2.376 -0.852,3.168zm-3.96,-0.756c0.368,0.568 0.892,0.852 1.572,0.852c0.68,0 1.204,-0.284 1.572,-0.852c0.376,-0.568 0.564,-1.372 0.564,-2.412c0,-1.04 -0.188,-1.844 -0.564,-2.412c-0.368,-0.576 -0.892,-0.864 -1.572,-0.864c-0.68,0 -1.204,0.284 -1.572,0.852c-0.368,0.568 -0.552,1.376 -0.552,2.424c0,1.04 0.184,1.844 0.552,2.412zm5.631,1.788l0,-0.912l2.964,-3.024c0.792,-0.792 1.188,-1.472 1.188,-2.04c0,-0.472 -0.144,-0.84 -0.432,-1.104c-0.288,-0.264 -0.64,-0.396 -1.056,-0.396c-0.792,0 -1.368,0.376 -1.728,1.128l-0.936,-0.552c0.264,-0.544 0.628,-0.956 1.092,-1.236c0.472,-0.28 0.992,-0.42 1.56,-0.42c0.704,0 1.316,0.232 1.836,0.696c0.52,0.464 0.78,1.088 0.78,1.872c0,0.848 -0.5,1.772 -1.5,2.772l-2.148,2.136l3.804,0l0,1.08l-5.424,0z"/>
  <path id="svg_11" fill="#4d4d4d" d="m408.988,136.658c0.64,0.12 1.164,0.396 1.572,0.828c0.408,0.432 0.612,0.98 0.612,1.644c0,0.816 -0.28,1.46 -0.84,1.932c-0.56,0.472 -1.24,0.708 -2.04,0.708c-0.64,0 -1.208,-0.144 -1.704,-0.432c-0.496,-0.296 -0.848,-0.72 -1.056,-1.272l0.936,-0.552c0.248,0.776 0.856,1.164 1.824,1.164c0.52,0 0.944,-0.136 1.272,-0.408c0.328,-0.272 0.492,-0.652 0.492,-1.14c0,-0.488 -0.164,-0.868 -0.492,-1.14c-0.328,-0.28 -0.752,-0.42 -1.272,-0.42l-0.288,0l-0.444,-0.684l1.944,-2.628l-3.732,0l0,-1.044l5.04,0l0,0.984l-1.824,2.46zm4.854,-3.444l0.96,0l0,8.4l-1.104,0l0,-7.2l-1.788,0.528l-0.276,-0.96l2.208,-0.768zm2.981,9.6l-0.624,0l4.8,-10.8l0.624,0l-4.8,10.8zm11.428,-2.232c-0.568,0.792 -1.364,1.188 -2.388,1.188c-1.024,0 -1.82,-0.396 -2.388,-1.188c-0.568,-0.792 -0.852,-1.848 -0.852,-3.168c0,-1.32 0.284,-2.376 0.852,-3.168c0.568,-0.792 1.364,-1.188 2.388,-1.188c1.024,0 1.82,0.396 2.388,1.188c0.568,0.792 0.852,1.848 0.852,3.168c0,1.32 -0.284,2.376 -0.852,3.168zm-3.96,-0.756c0.368,0.568 0.892,0.852 1.572,0.852c0.68,0 1.204,-0.284 1.572,-0.852c0.376,-0.568 0.564,-1.372 0.564,-2.412c0,-1.04 -0.188,-1.844 -0.564,-2.412c-0.368,-0.576 -0.892,-0.864 -1.572,-0.864c-0.68,0 -1.204,0.284 -1.572,0.852c-0.368,0.568 -0.552,1.376 -0.552,2.424c0,1.04 0.184,1.844 0.552,2.412zm7.492,-6.612l0.96,0l0,8.4l-1.104,0l0,-7.2l-1.788,0.528l-0.276,-0.96l2.208,-0.768z"/>
  <path id="svg_13" fill="#4d4d4d" d="m502.28,140.582c-0.568,0.792 -1.364,1.188 -2.388,1.188c-1.024,0 -1.82,-0.396 -2.388,-1.188c-0.568,-0.792 -0.852,-1.848 -0.852,-3.168c0,-1.32 0.284,-2.376 0.852,-3.168c0.568,-0.792 1.364,-1.188 2.388,-1.188c1.024,0 1.82,0.396 2.388,1.188c0.568,0.792 0.852,1.848 0.852,3.168c0,1.32 -0.284,2.376 -0.852,3.168zm-3.96,-0.756c0.368,0.568 0.892,0.852 1.572,0.852c0.68,0 1.204,-0.284 1.572,-0.852c0.376,-0.568 0.564,-1.372 0.564,-2.412c0,-1.04 -0.188,-1.844 -0.564,-2.412c-0.368,-0.576 -0.892,-0.864 -1.572,-0.864c-0.68,0 -1.204,0.284 -1.572,0.852c-0.368,0.568 -0.552,1.376 -0.552,2.424c0,1.04 0.184,1.844 0.552,2.412zm12.059,-0.852l0,1.044l-1.02,0l0,1.596l-1.116,0l0,-1.596l-4.284,0l0,-1.044l3.012,-5.76l1.2,0l-3.012,5.76l3.084,0l0,-2.376l1.116,0l0,2.376l1.02,0zm1.333,3.84l-0.624,0l4.8,-10.8l0.624,0l-4.8,10.8zm11.427,-2.232c-0.568,0.792 -1.364,1.188 -2.388,1.188c-1.024,0 -1.82,-0.396 -2.388,-1.188c-0.568,-0.792 -0.852,-1.848 -0.852,-3.168c0,-1.32 0.284,-2.376 0.852,-3.168c0.568,-0.792 1.364,-1.188 2.388,-1.188c1.024,0 1.82,0.396 2.388,1.188c0.568,0.792 0.852,1.848 0.852,3.168c0,1.32 -0.284,2.376 -0.852,3.168zm-3.96,-0.756c0.368,0.568 0.892,0.852 1.572,0.852c0.68,0 1.204,-0.284 1.572,-0.852c0.376,-0.568 0.564,-1.372 0.564,-2.412c0,-1.04 -0.188,-1.844 -0.564,-2.412c-0.368,-0.576 -0.892,-0.864 -1.572,-0.864c-0.68,0 -1.204,0.284 -1.572,0.852c-0.368,0.568 -0.552,1.376 -0.552,2.424c0,1.04 0.184,1.844 0.552,2.412zm5.631,1.788l0,-0.912l2.964,-3.024c0.792,-0.792 1.188,-1.472 1.188,-2.04c0,-0.472 -0.144,-0.84 -0.432,-1.104c-0.288,-0.264 -0.64,-0.396 -1.056,-0.396c-0.792,0 -1.368,0.376 -1.728,1.128l-0.936,-0.552c0.264,-0.544 0.628,-0.956 1.092,-1.236c0.472,-0.28 0.992,-0.42 1.56,-0.42c0.704,0 1.316,0.232 1.836,0.696c0.52,0.464 0.78,1.088 0.78,1.872c0,0.848 -0.5,1.772 -1.5,2.772l-2.148,2.136l3.804,0l0,1.08l-5.424,0z"/>
  <path id="svg_15" fill="#4d4d4d" d="m594.53,140.582c-0.568,0.792 -1.364,1.188 -2.388,1.188c-1.024,0 -1.82,-0.396 -2.388,-1.188c-0.568,-0.792 -0.852,-1.848 -0.852,-3.168c0,-1.32 0.284,-2.376 0.852,-3.168c0.568,-0.792 1.364,-1.188 2.388,-1.188c1.024,0 1.82,0.396 2.388,1.188c0.568,0.792 0.852,1.848 0.852,3.168c0,1.32 -0.284,2.376 -0.852,3.168zm-3.96,-0.756c0.368,0.568 0.892,0.852 1.572,0.852c0.68,0 1.204,-0.284 1.572,-0.852c0.376,-0.568 0.564,-1.372 0.564,-2.412c0,-1.04 -0.188,-1.844 -0.564,-2.412c-0.368,-0.576 -0.892,-0.864 -1.572,-0.864c-0.68,0 -1.204,0.284 -1.572,0.852c-0.368,0.568 -0.552,1.376 -0.552,2.424c0,1.04 0.184,1.844 0.552,2.412zm8.555,-3.336c0.792,0 1.46,0.236 2.004,0.708c0.552,0.464 0.828,1.108 0.828,1.932c0,0.816 -0.28,1.46 -0.84,1.932c-0.56,0.472 -1.24,0.708 -2.04,0.708c-0.64,0 -1.212,-0.152 -1.716,-0.456c-0.504,-0.312 -0.856,-0.76 -1.056,-1.344l0.948,-0.54c0.112,0.408 0.328,0.72 0.648,0.936c0.32,0.208 0.712,0.312 1.176,0.312c0.528,0 0.956,-0.136 1.284,-0.408c0.328,-0.272 0.492,-0.652 0.492,-1.14c0,-0.488 -0.164,-0.868 -0.492,-1.14c-0.328,-0.28 -0.748,-0.42 -1.26,-0.42l-2.376,0l0.312,-4.356l4.596,0l0,1.044l-3.588,0l-0.144,2.232l1.224,0zm4.356,6.324l-0.624,0l4.8,-10.8l0.624,0l-4.8,10.8zm11.427,-2.232c-0.568,0.792 -1.364,1.188 -2.388,1.188c-1.024,0 -1.82,-0.396 -2.388,-1.188c-0.568,-0.792 -0.852,-1.848 -0.852,-3.168c0,-1.32 0.284,-2.376 0.852,-3.168c0.568,-0.792 1.364,-1.188 2.388,-1.188c1.024,0 1.82,0.396 2.388,1.188c0.568,0.792 0.852,1.848 0.852,3.168c0,1.32 -0.284,2.376 -0.852,3.168zm-3.96,-0.756c0.368,0.568 0.892,0.852 1.572,0.852c0.68,0 1.204,-0.284 1.572,-0.852c0.376,-0.568 0.564,-1.372 0.564,-2.412c0,-1.04 -0.188,-1.844 -0.564,-2.412c-0.368,-0.576 -0.892,-0.864 -1.572,-0.864c-0.68,0 -1.204,0.284 -1.572,0.852c-0.368,0.568 -0.552,1.376 -0.552,2.424c0,1.04 0.184,1.844 0.552,2.412zm5.631,1.788l0,-0.912l2.964,-3.024c0.792,-0.792 1.188,-1.472 1.188,-2.04c0,-0.472 -0.144,-0.84 -0.432,-1.104c-0.288,-0.264 -0.64,-0.396 -1.056,-0.396c-0.792,0 -1.368,0.376 -1.728,1.128l-0.936,-0.552c0.264,-0.544 0.628,-0.956 1.092,-1.236c0.472,-0.28 0.992,-0.42 1.56,-0.42c0.704,0 1.316,0.232 1.836,0.696c0.52,0.464 0.78,1.088 0.78,1.872c0,0.848 -0.5,1.772 -1.5,2.772l-2.148,2.136l3.804,0l0,1.08l-5.424,0z"/>
  <path id="svg_17" fill="#4d4d4d" d="m684.255,140.913c-0.568,0.792 -1.364,1.188 -2.388,1.188c-1.024,0 -1.82,-0.396 -2.388,-1.188c-0.568,-0.792 -0.852,-1.848 -0.852,-3.168c0,-1.32 0.284,-2.376 0.852,-3.168c0.568,-0.792 1.364,-1.188 2.388,-1.188c1.024,0 1.82,0.396 2.388,1.188c0.568,0.792 0.852,1.848 0.852,3.168c0,1.32 -0.284,2.376 -0.852,3.168zm-3.96,-0.756c0.368,0.568 0.892,0.852 1.572,0.852c0.68,0 1.204,-0.284 1.572,-0.852c0.376,-0.568 0.564,-1.372 0.564,-2.412c0,-1.04 -0.188,-1.844 -0.564,-2.412c-0.368,-0.576 -0.892,-0.864 -1.572,-0.864c-0.68,0 -1.204,0.284 -1.572,0.852c-0.368,0.568 -0.552,1.376 -0.552,2.424c0,1.04 0.184,1.844 0.552,2.412zm8.579,-3.708c0.84,0 1.532,0.264 2.076,0.792c0.544,0.52 0.816,1.196 0.816,2.028c0,0.832 -0.272,1.512 -0.816,2.04c-0.544,0.528 -1.236,0.792 -2.076,0.792c-0.848,0 -1.544,-0.264 -2.088,-0.792c-0.536,-0.528 -0.804,-1.208 -0.804,-2.04c0,-0.648 0.168,-1.208 0.504,-1.68l2.7,-4.044l1.272,0l-1.98,2.928c0.176,-0.016 0.308,-0.024 0.396,-0.024zm-1.296,4.104c0.336,0.32 0.768,0.48 1.296,0.48c0.528,0 0.956,-0.16 1.284,-0.48c0.336,-0.328 0.504,-0.756 0.504,-1.284c0,-0.528 -0.168,-0.952 -0.504,-1.272c-0.328,-0.32 -0.756,-0.48 -1.284,-0.48c-0.536,0 -0.968,0.16 -1.296,0.48c-0.328,0.32 -0.492,0.744 -0.492,1.272c0,0.528 0.164,0.956 0.492,1.284zm5.605,2.592l-0.624,0l4.8,-10.8l0.624,0l-4.8,10.8zm11.428,-2.232c-0.568,0.792 -1.364,1.188 -2.388,1.188c-1.024,0 -1.82,-0.396 -2.388,-1.188c-0.568,-0.792 -0.852,-1.848 -0.852,-3.168c0,-1.32 0.284,-2.376 0.852,-3.168c0.568,-0.792 1.364,-1.188 2.388,-1.188c1.024,0 1.82,0.396 2.388,1.188c0.568,0.792 0.852,1.848 0.852,3.168c0,1.32 -0.284,2.376 -0.852,3.168zm-3.96,-0.756c0.368,0.568 0.892,0.852 1.572,0.852c0.68,0 1.204,-0.284 1.572,-0.852c0.376,-0.568 0.564,-1.372 0.564,-2.412c0,-1.04 -0.188,-1.844 -0.564,-2.412c-0.368,-0.576 -0.892,-0.864 -1.572,-0.864c-0.68,0 -1.204,0.284 -1.572,0.852c-0.368,0.568 -0.552,1.376 -0.552,2.424c0,1.04 0.184,1.844 0.552,2.412zm5.63,1.788l0,-0.912l2.964,-3.024c0.792,-0.792 1.188,-1.472 1.188,-2.04c0,-0.472 -0.144,-0.84 -0.432,-1.104c-0.288,-0.264 -0.64,-0.396 -1.056,-0.396c-0.792,0 -1.368,0.376 -1.728,1.128l-0.936,-0.552c0.264,-0.544 0.628,-0.956 1.092,-1.236c0.472,-0.28 0.992,-0.42 1.56,-0.42c0.704,0 1.316,0.232 1.836,0.696c0.52,0.464 0.78,1.088 0.78,1.872c0,0.848 -0.5,1.772 -1.5,2.772l-2.148,2.136l3.804,0l0,1.08l-5.424,0z"/>
  <path id="svg_19" stroke="#979797" d="m133.64,127.309l0,-4.309"/>
  <path id="svg_20" stroke="#979797" d="m224.556,127.309l0,-4.309"/>
  <path id="svg_21" stroke="#979797" d="m315.471,127.309l0,-4.309"/>
  <path id="svg_22" stroke="#979797" d="m406.387,127.309l0,-4.309"/>
  <path id="svg_23" stroke="#979797" d="m497.302,127.309l0,-4.309"/>
  <path id="svg_24" stroke="#979797" d="m588.218,127.309l0,-4.309"/>
  <path id="svg_25" stroke="#979797" d="m679.133,127.309l0,-4.309"/>
  <path id="svg_26" stroke="#979797" d="m36.8258,122.566l6.3801,0"/>
  <path id="svg_27" fill="#4d4d4d" d="m27.3228,125.385c-0.568,0.792 -1.364,1.188 -2.388,1.188c-1.024,0 -1.82,-0.396 -2.388,-1.188c-0.568,-0.792 -0.852,-1.848 -0.852,-3.168c0,-1.32 0.284,-2.376 0.852,-3.168c0.568,-0.792 1.364,-1.188 2.388,-1.188c1.024,0 1.82,0.396 2.388,1.188c0.568,0.792 0.852,1.848 0.852,3.168c0,1.32 -0.284,2.376 -0.852,3.168zm-3.96,-0.756c0.368,0.568 0.892,0.852 1.572,0.852c0.68,0 1.204,-0.284 1.572,-0.852c0.376,-0.568 0.564,-1.372 0.564,-2.412c0,-1.04 -0.188,-1.844 -0.564,-2.412c-0.368,-0.576 -0.892,-0.864 -1.572,-0.864c-0.68,0 -1.204,0.284 -1.572,0.852c-0.368,0.568 -0.552,1.376 -0.552,2.424c0,1.04 0.184,1.844 0.552,2.412z"/>
  <path id="svg_29" stroke="#979797" d="m36.8258,63.6228l6.3802,0"/>
  <path id="svg_30" fill="#4d4d4d" d="m17.2615,59.0742l0.96,0l0,8.4l-1.104,0l0,-7.2l-1.788,0.528l-0.276,-0.96l2.208,-0.768zm4.2533,7.164l-0.78,2.916l-0.9,0l0.48,-2.916l1.2,0zm3.9232,-3.888c0.792,0 1.46,0.236 2.004,0.708c0.552,0.464 0.828,1.108 0.828,1.932c0,0.816 -0.28,1.46 -0.84,1.932c-0.56,0.472 -1.24,0.708 -2.04,0.708c-0.64,0 -1.212,-0.152 -1.716,-0.456c-0.504,-0.312 -0.856,-0.76 -1.056,-1.344l0.948,-0.54c0.112,0.408 0.328,0.72 0.648,0.936c0.32,0.208 0.712,0.312 1.176,0.312c0.528,0 0.956,-0.136 1.284,-0.408c0.328,-0.272 0.492,-0.652 0.492,-1.14c0,-0.488 -0.164,-0.868 -0.492,-1.14c-0.328,-0.28 -0.748,-0.42 -1.26,-0.42l-2.376,0l0.312,-4.356l4.596,0l0,1.044l-3.588,0l-0.144,2.232l1.224,0z"/>
  <path id="svg_32" stroke="#979797" d="m36.8259,5.14837l6.3801,0"/>
  <path id="svg_33" fill="#4d4d4d" d="m26.0837,4.044c0.64,0.12 1.164,0.396 1.572,0.828c0.408,0.432 0.612,0.98 0.612,1.644c0,0.816 -0.28,1.46 -0.84,1.932c-0.56,0.472 -1.24,0.708 -2.04,0.708c-0.64,0 -1.208,-0.144 -1.704,-0.432c-0.496,-0.296 -0.848,-0.72 -1.056,-1.272l0.936,-0.552c0.248,0.776 0.856,1.164 1.824,1.164c0.52,0 0.944,-0.136 1.272,-0.408c0.328,-0.272 0.492,-0.652 0.492,-1.14c0,-0.488 -0.164,-0.868 -0.492,-1.14c-0.328,-0.28 -0.752,-0.42 -1.272,-0.42l-0.288,0l-0.444,-0.684l1.944,-2.628l-3.732,0l0,-1.044l5.04,0l0,0.984l-1.824,2.46z"/>
  <path id="svg_35" stroke="#4D4D4D" d="m43,123l636,0"/>
  <path id="svg_36" stroke="#4D4D4D" d="m43,93.5002l636,0"/>
  <path id="svg_37" stroke="#4D4D4D" d="m43,64l636,0"/>
  <path id="svg_38" stroke="#4D4D4D" d="m43,34.5002l636,0"/>
  <path id="svg_39" stroke="#4D4D4D" d="m43,5l636,0"/>
  <path id="svg_40" stroke="#4D4D4D" d="m43,5.00008l0,117.99992"/>
  <path id="svg_41" stroke="#4D4D4D" d="m133.857,5l0,118"/>
  <path id="svg_42" stroke="#4D4D4D" d="m224.714,5l0,118"/>
  <path id="svg_43" stroke="#4D4D4D" d="m315.571,5l0,118"/>
  <path id="svg_44" stroke="#4D4D4D" d="m406.428,5l0,118"/>
  <path id="svg_45" stroke="#4D4D4D" d="m497.285,5l0,118"/>
  <path id="svg_46" stroke="#4D4D4D" d="m588.142,5l0,118"/>
  <path fill="none" id="svg_47" stroke-width="1.8" stroke="#7F7FD5" d="m43.2067,101.619c26.9312,-52.249 62.9313,-68.8055 90.8503,-44.9543c23.904,20.4207 56.822,65.4013 90.85,45.0723c34.029,-20.3295 42.028,-95.67495 90.851,-95.67511c48.822,-0.00016 70.372,61.57121 90.85,86.26021c20.479,24.6889 57.217,-3.8141 91.169,-29.0073c33.952,-25.1932 52.161,-41.0333 90.532,-48.7799c38.371,-7.74656 90.85,71.6678 90.85,71.6678"/>
  <path id="svg_48" stroke="#4D4D4D" d="m43.2067,4.88481l0,117.68119"/>
  <path id="svg_49" stroke="#4D4D4D" d="m679.159,4.88481l0,117.68119"/>
  <path id="svg_50" fill="#E786D7" d="m133.814,58.566c1.322,0 2.394,-1.0823 2.394,-2.4174c0,-1.3351 -1.072,-2.4174 -2.394,-2.4174c-1.322,0 -2.394,1.0823 -2.394,2.4174c0,1.3351 1.072,2.4174 2.394,2.4174z"/>
  <path id="svg_51" fill="#E786D7" d="m42.8043,103.513c1.322,0 2.3936,-1.082 2.3936,-2.417c0,-1.3353 -1.0716,-2.4176 -2.3936,-2.4176c-1.322,0 -2.3937,1.0823 -2.3937,2.4176c0,1.335 1.0717,2.417 2.3937,2.417z"/>
  <path id="svg_52" fill="#E786D7" d="m224.823,104.512c1.322,0 2.394,-1.082 2.394,-2.417c0,-1.335 -1.072,-2.4178 -2.394,-2.4178c-1.322,0 -2.393,1.0828 -2.393,2.4178c0,1.335 1.071,2.417 2.393,2.417z"/>
  <path id="svg_53" fill="#E786D7" d="m315.607,8.0194c1.322,0 2.394,-1.08231 2.394,-2.4174c0,-1.3351 -1.072,-2.41741 -2.394,-2.41741c-1.322,0 -2.393,1.08231 -2.393,2.41741c0,1.33509 1.071,2.4174 2.393,2.4174z"/>
  <path id="svg_54" fill="#E786D7" d="m406.386,94.5642c1.322,0 2.393,-1.0823 2.393,-2.4174c0,-1.3351 -1.071,-2.4174 -2.393,-2.4174c-1.322,0 -2.394,1.0823 -2.394,2.4174c0,1.3351 1.072,2.4174 2.394,2.4174z"/>
  <path id="svg_55" fill="#E786D7" d="m496.852,66.5566c1.322,0 2.394,-1.0823 2.394,-2.4174c0,-1.3351 -1.072,-2.4174 -2.394,-2.4174c-1.322,0 -2.394,1.0823 -2.394,2.4174c0,1.3351 1.072,2.4174 2.394,2.4174z"/>
  <path id="svg_56" fill="#E786D7" d="m588.862,16.6153c1.322,0 2.393,-1.0824 2.393,-2.4174c0,-1.3351 -1.071,-2.4174 -2.393,-2.4174c-1.322,0 -2.394,1.0823 -2.394,2.4174c0,1.335 1.072,2.4174 2.394,2.4174z"/>
  <path id="svg_57" fill="#E786D7" d="m678.871,88.5308c1.322,0 2.394,-1.0823 2.394,-2.4174c0,-1.3351 -1.072,-2.4174 -2.394,-2.4174c-1.322,0 -2.393,1.0823 -2.393,2.4174c0,1.3351 1.071,2.4174 2.393,2.4174z"/>
 </g>
</svg>